
        <svg xmlns="http://www.w3.org/2000/svg" xmlns:xlink="http://www.w3.org/1999/xlink" viewBox="0 0 344.24 427.71"><defs><style>.cls-1,.cls-13,.cls-6{fill:none;}.cls-16,.cls-2{fill:#fff;}.cls-2,.cls-6{stroke:#ebebeb;stroke-miterlimit:10;}.cls-3{fill:#a6a6a6;}.cls-4{fill:#ebebeb;}.cls-5{fill:#ffc727;}.cls-7{clip-path:url(#clip-path);}.cls-8{fill:#42673f;}.cls-9{fill:#f7a9a0;}.cls-10{fill:#84ac8f;}.cls-11{fill:#455b4a;}.cls-12{fill:#263238;}.cls-13{stroke:#f3a59c;stroke-linecap:round;stroke-linejoin:round;stroke-width:0;}.cls-14{fill:#ff99ba;}.cls-15{fill:#455a64;}.cls-17{fill:#416c81;}.cls-18{fill:#37474f;}.cls-19{opacity:0.5;}</style><clipPath id="clip-path"><rect class="cls-1" x="0.49" y="83.57" width="294.04" height="294.04"/></clipPath></defs><g id="Layer_2" data-name="Layer 2"><g id="Map"><rect class="cls-2" x="0.5" y="83.57" width="294.05" height="294.05"/><path class="cls-3" d="M32.78,101a8.66,8.66,0,1,1-8.65-8.66A8.65,8.65,0,0,1,32.78,101Z"/><path class="cls-4" d="M68.12,101a8.66,8.66,0,1,1-8.65-8.66A8.65,8.65,0,0,1,68.12,101Z"/><circle class="cls-5" cx="94.81" cy="101.02" r="8.65"/><line class="cls-6" x1="0.5" y1="117.97" x2="294.55" y2="117.97"/><g class="cls-7"><path class="cls-8" d="M110.69,377.61c-.58,1-1.2,2-1.85,3a98.56,98.56,0,0,0-10.71-3Z"/><path class="cls-9" d="M143.45,267.62c14.46,20,62.12,66.48,105.65,61.12C274,325.66,299.65,249.65,303,228.39c5.9-37.88,3.93-91.64-10.49-88.21-18,4.28-59.62,116.3-71.4,121.48-10.55,4.64-29.51-4.47-66.33-21.76C134.39,230.34,133.82,254.32,143.45,267.62Z"/><path class="cls-10" d="M266.83,170.56c4.25-1.51,36.23,65.76,36.13,71.32s-22.76,84.07-53.77,89-71.53-21.86-96.28-49.49-26.54-54.65,9.24-39.74,54.85,23.05,58.92,20S263.43,171.77,266.83,170.56Z"/><path class="cls-11" d="M218.57,327.34c-23.86-8.07-48.55-26.78-65.65-45.91-21.63-24.1-25.71-47.79-2.57-43.43Z"/><path class="cls-9" d="M145.42,262.32c-10.43,3.75-30.68-10.54-39.45-23-.6-.86-.29-10.61-.48-22.47-.14-7.2-.47-15.22-1.3-22.51-.18-1.49,5.23.68,5.23.68l9.69,1.21,32.06,4s-2.76,15.8-1.24,28.5a16.34,16.34,0,0,0,.66,2.95c0,.14.09.3.12.49C152.28,237.8,155.5,258.69,145.42,262.32Z"/><path class="cls-12" d="M150.59,231.73c0,.14.09.3.12.49A28.05,28.05,0,0,1,146,233c-30.87,2.81-39.15-35.9-39.15-35.9l12.22-.85,32.06,4s-2.76,15.8-1.24,28.5A16.34,16.34,0,0,0,150.59,231.73Z"/><path class="cls-9" d="M93.63,138.12C89.35,154.63,100,201.35,112,211.36c17.46,14.51,45,14.8,57.11-6,11.71-20.11-3.19-80.76-16.55-89.76C132.88,102.4,100,113.73,93.63,138.12Z"/><path class="cls-13" d="M110.81,211s0,0,0,0"/><path class="cls-12" d="M133.73,166.06c0-.12-.21.2-.18.33.8,3.13,1.19,6.85-1.43,8.52-.08.06,0,.21.06.18C135.55,173.82,135,168.89,133.73,166.06Z"/><path class="cls-12" d="M130.19,163.39c-5.16.74-3.3,11,1.48,10.31S134.51,162.77,130.19,163.39Z"/><path class="cls-12" d="M152.91,162c0-.12.28.11.3.24.47,3.19,1.55,6.77,4.62,7.31.09,0,.11.17,0,.18C154.24,169.86,152.85,165.1,152.91,162Z"/><path class="cls-12" d="M155.15,158.16c5-1.31,7.29,8.86,2.62,10.08S150.92,159.26,155.15,158.16Z"/><path class="cls-12" d="M125.29,159.44c1.33-.61,2.46-1.39,3.72-2.12,1.42-.83,2.63-1.34,3.38-2.88a2.2,2.2,0,0,0-.83-2.56c-1.78-1.09-3.77-.5-5.52.42a8.08,8.08,0,0,0-3.93,4.25C121.31,158.46,123.53,160.23,125.29,159.44Z"/><path class="cls-12" d="M158.18,152.28a38,38,0,0,1-4.27-.32c-1.64-.14-2.95-.08-4.29-1.15a2.19,2.19,0,0,1-.35-2.67c1.14-1.74,3.19-2.07,5.16-2a8,8,0,0,1,5.38,2.15C161.35,149.69,160.11,152.25,158.18,152.28Z"/><path class="cls-12" d="M137,195.48c.9.6,1.84,1.49,3,1.38a8.52,8.52,0,0,0,3.27-1.42.11.11,0,0,1,.17.14,4.34,4.34,0,0,1-3.72,2.45c-1.48,0-2.42-1.1-3-2.35C136.63,195.5,136.86,195.39,137,195.48Z"/><path class="cls-12" d="M138.61,185.37a11,11,0,0,0,8.09,3.5,14.19,14.19,0,0,0,3.92-.53,4.4,4.4,0,0,0,.73-.22c.22-.07.43-.13.67-.23a.81.81,0,0,0,.51-.83v0a3,3,0,0,0-.09-.32v0l-.05-.27c-.38-2.46-1.29-6.13-1.29-6.13,1,.28,5.9,1.5,5.6.24-2.55-10.46-5.39-22.09-10.13-32a.3.3,0,0,0-.57.18c2,10.15,5.88,19.87,8.1,30-1.55-.29-4.11-.89-5.38-.63-.33.16,1.88,7.07,2,8.19a.39.39,0,0,1,0,.12c-4,1.27-7.33.59-11.82-1.44C138.58,184.89,138.37,185.15,138.61,185.37Z"/><path class="cls-12" d="M149,187.77a13,13,0,0,1-4.63,4.71,5.85,5.85,0,0,1-3.5.69c-2.64-.32-3-2.66-2.83-4.72a14.31,14.31,0,0,1,.73-3.23A16.86,16.86,0,0,0,149,187.77Z"/><path class="cls-14" d="M144.32,192.48a5.85,5.85,0,0,1-3.5.69c-2.64-.32-3-2.66-2.83-4.72C140.77,188.36,143.73,189.85,144.32,192.48Z"/><path class="cls-12" d="M98,173.69c10.8-2.1,9.15-22.12,9.15-22.12s18-6.58,18-21.06c0,0,19.75,7.88,32.64.21s7.68-24.51,5.47-27.54c-5.07-7-14.7,5.06-14.7,5.06s-19.47-7.22-38.89-1.48c-15.81,4.67-21,21.4-21,21.4s-8.3,3.49-9.95,10.08S91.07,175,98,173.69Z"/><path class="cls-12" d="M102.76,152.54c14.71-.83,22.41-12.19,21.87-26.33a.14.14,0,0,1,.27,0c2,12.88-7.2,29.44-22.15,27A.33.33,0,0,1,102.76,152.54Z"/><path class="cls-12" d="M89,127.82a.16.16,0,0,1,.15.27c-3.66,2.62-8,4.9-10.12,9.1-2.57,5.07-.72,10.73,1.51,15.51,3.46,7.41,9.4,16.76,17.24,20,.45.18.14.85-.31.68-9.29-3.32-16.65-15.52-19.55-24.47C74.64,138.91,79.91,131.84,89,127.82Z"/><path class="cls-12" d="M141.56,131.23c7.08,2.9,16.49,1.22,21.8-4.73,6.48-7.25,3.13-16.41-1.59-23.67-.24-.36.2-.88.52-.55,5.74,6.07,8.06,16.56,3,23.76-5.24,7.45-16.34,9.44-24.15,6.25C140.48,132,140.91,131,141.56,131.23Z"/><path class="cls-5" d="M132.56,183.25a14.06,14.06,0,1,1,11.7-18.87h0a14.06,14.06,0,0,1-11.7,18.87Zm-2.77-26.09a11.92,11.92,0,0,0-2.95.69,12.2,12.2,0,1,0,2.95-.69Z"/><path class="cls-5" d="M164,176c-5.35.57-10.78-4.4-12.4-11.55a16.81,16.81,0,0,1,.72-10.24,8.76,8.76,0,0,1,14.63-3.32,16.74,16.74,0,0,1,5.06,8.93c1.72,7.56-1.47,14.75-7.1,16A6.91,6.91,0,0,1,164,176Zm-4.18-25.86a5.38,5.38,0,0,0-.7.12,7.5,7.5,0,0,0-5.07,4.69,14.9,14.9,0,0,0-.62,9.08c1.48,6.55,6.43,11,11.07,10s7.16-7.22,5.68-13.77a15,15,0,0,0-4.47-7.94A7.76,7.76,0,0,0,159.81,150.1Z"/><path class="cls-5" d="M144.16,166.07l-1.5-1.14c1.68-2.21,6-5.65,10.12-2.83l-1.05,1.56C148,161.12,144.31,165.87,144.16,166.07Z"/><path class="cls-5" d="M86.68,183.33l-1.82-.47c.22-.85,2.27-8.33,6.21-9.93,3.69-1.47,26-4.63,27-4.77l.24,1.87c-7.19.93-23.72,3.5-26.56,4.65C89.17,175.73,87.22,181.28,86.68,183.33Z"/><path class="cls-9" d="M105.32,176.07s-11.59-14.55-18.25-10.32,2.71,25.77,11,28.28a8.25,8.25,0,0,0,10.76-5.12Z"/><path class="cls-12" d="M89.91,171.86c-.13,0-.14.18,0,.22,5.83,1.94,9.15,7,11.59,12.36-1.83-2-4.2-3-6.89-.82-.14.11,0,.34.17.29a5.09,5.09,0,0,1,5.69,1.42,24.52,24.52,0,0,1,3,4.35c.3.49,1.2.16,1-.41l-.06-.13C104,181.89,97.74,172.1,89.91,171.86Z"/><path class="cls-10" d="M202.68,377.61h-92c-.58,1-1.2,2-1.85,3a98.56,98.56,0,0,0-10.71-3H38.83C54,327.2,74.06,272.47,94.18,248.13A51.88,51.88,0,0,1,98.85,243a35.83,35.83,0,0,1,3-2.67c2.13-3.13-.68-14.87.83-16s49.78.79,51.19,2,.14,8.41,1.55,10.26c.58.76,16.72,26.92,26,50.44C188.57,305.09,196.29,341.35,202.68,377.61Z"/><path class="cls-15" d="M107.4,227.52a35.65,35.65,0,0,1,0,11,35.65,35.65,0,0,1,0-11Z"/><path class="cls-15" d="M113.44,227.52a34.22,34.22,0,0,1,.43,5.52,33.12,33.12,0,0,1-.43,5.52A33.12,33.12,0,0,1,113,233,34.22,34.22,0,0,1,113.44,227.52Z"/><path class="cls-15" d="M119.48,227.52a35.65,35.65,0,0,1,0,11,35.65,35.65,0,0,1,0-11Z"/><path class="cls-15" d="M125.52,227.52a35.65,35.65,0,0,1,0,11,33.11,33.11,0,0,1-.42-5.52A34.21,34.21,0,0,1,125.52,227.52Z"/><path class="cls-15" d="M131.57,227.52A34.21,34.21,0,0,1,132,233a33.11,33.11,0,0,1-.42,5.52,35.65,35.65,0,0,1,0-11Z"/><path class="cls-15" d="M137.61,227.52a35.65,35.65,0,0,1,0,11,35.65,35.65,0,0,1,0-11Z"/><path class="cls-15" d="M143.65,227.52a34.22,34.22,0,0,1,.43,5.52,33.12,33.12,0,0,1-.43,5.52,33.12,33.12,0,0,1-.43-5.52A34.22,34.22,0,0,1,143.65,227.52Z"/><path class="cls-15" d="M149.69,227.52a35.65,35.65,0,0,1,0,11,35.65,35.65,0,0,1,0-11Z"/><path class="cls-9" d="M119.1,360.2c-.3,2.57-3.33,8.92-8.41,17.41-.58,1-1.2,2-1.85,3a98.56,98.56,0,0,0-10.71-3H1.75c30.45-53,65.64-114.17,92.43-129.48.72-.42,1.4-.79,2.06-1.14,24.48-12.6,5.52,34.34-10,61.64-10.65,18.67-31.9,48-37.43,57.61-1.1,1.85-1.58,3-1.31,3.16a.84.84,0,0,0,.9-.17A9.28,9.28,0,0,0,50,367.51c.65-.86,1.4-2,2.26-3.23s1.69-2.26,2.54-3.43c2.61-3.23,5.84-6.28,9.69-6.9C75.05,352.23,119.86,354,119.1,360.2Z"/><path class="cls-10" d="M2.48,342.32c27.35-35.43,56.76-69,72.81-83.14,9.38-8.24,17.55-13.94,23.56-16.14,12.56-4.6,15.72,6.08,1.13,40.83-2,4.81-4.12,9.48-6.25,13.94a.26.26,0,0,1-.07.14c-3.81,8-7.72,15.38-11.6,22.11a327.14,327.14,0,0,1-23.9,36.09.9.9,0,0,1-.28.34c-5.42,7-8.89,10.81-8.89,10.81a7.18,7.18,0,0,1,.79.18.51.51,0,0,1,.21,0c5.46,1,32,6.15,48.14,10.1H.67Z"/><path class="cls-11" d="M104.05,290.19a65.58,65.58,0,0,0-6.78,5.66c-.61.6-1.19,1.22-1.79,1.84,2.81-4.81,5.6-9.64,8.21-14.54a.32.32,0,0,0-.56-.3c-7.84,12.46-15.55,25-23.57,37.35s-16.15,24.26-24.32,36.33c-4.64,6.85-9.09,13.85-13.78,20.65-.17.25.25.55.43.31,4.52-5.78,9.14-11.43,13.45-17.38s8.29-11.71,12.29-17.68q12.28-18.31,23.49-37.31l2.21-3.76c.62-.59,1.3-1.13,1.93-1.67q1.63-1.4,3.2-2.9a68.36,68.36,0,0,0,5.76-6.39C104.31,290.28,104.18,290.1,104.05,290.19Z"/></g><path class="cls-9" d="M335.68,132.88c3.45,9.22-9.4,8-9.4,8s18.08,6.21,18,17.1c-.15,10.49-15.62,8.47-16.73,8.34.95.34,17.41,6.48,16.16,17.41-1.31,11.36-16.49,6.67-17.47,6.36.8.6,11.25,8.72,8.41,16.81-4.89,13.89-32.17-6.14-43.87-3.83l1.73,19c-.05.63-.1,1.28-.17,1.88l-9.67,1.33c-2.25-5.32-6.2-11.24-9.92-17-4.47-6.93-8.56-13.63-9-18.78a10.8,10.8,0,0,1,6.43-11.16s-9.15-5-8.44-13.67c.38-4.44,7.8-7.77,7.8-7.77s-7.16-4.34-6-12c.87-6.11,8.19-8.51,8.19-8.51s-5-7.35-2-13.3C275.47,111.08,328.28,113.12,335.68,132.88Z"/><path class="cls-9" d="M289.93,205.58l2.54,16.49c-.05.63-.1,1.28-.17,1.88-2.52,21.18-25.68,35.69-28.33,20.62-2-11.46,12.49-24.88,8.71-36.32h0Z"/><path class="cls-12" d="M272.76,135.83a.14.14,0,0,1-.05-.28c17.53-3.56,37.89-2.11,54.28,5.33.53.24.37,1.22-.27,1.07C308.36,137.51,291.71,135,272.76,135.83Z"/><path class="cls-12" d="M269.26,156.75c-.2,0-.22-.33,0-.38,18.08-3.57,41-1.31,58.84,9.49.62.37.8,1.32.06.95C315.72,160.53,286.33,156,269.26,156.75Z"/><path class="cls-12" d="M327.19,191.28c-17.55-9.69-36.43-12.78-56.29-13.17-.26,0-.22-.37,0-.42,9.77-2.46,22.4-.9,32.12,1.16a52.75,52.75,0,0,1,24.52,11.82C327.8,190.91,327.56,191.49,327.19,191.28Z"/><path class="cls-12" d="M292.42,212.35c-.63-3.32-1.08-6.46-1.67-9.78-.06-.32-.55-.22-.55.08,0,4.72.55,9.33.68,14.07a42.28,42.28,0,0,1-2,14.3,32.84,32.84,0,0,1-6.06,11c-2.79,3.31-6.72,7-11.29,7.22-4.82.23-7.32-3.79-7.17-8.19s2.85-8.29,4.87-12c2.13-3.93,4.29-8.35,5.11-12.77.78-4.23-.48-7.88-2.35-11.62-1.25-2.49-2.54-4.94-3.82-7.41a29.48,29.48,0,0,1-2.92-6.42c-1.05-4.44.89-10.49,5.35-12.36a.28.28,0,1,0-.23-.51c-3.75,2-6.36,4.33-7.91,8.43s.16,8.39,2.12,12.1c1.31,2.48,2.62,4.95,3.95,7.43s2.83,5.3,2.6,8.36c-.42,5.58-3.79,11-6.37,15.82-2.2,4.08-4.19,8.51-3.49,13.25.58,4,2.95,7.55,7,8.64,9.34,2.51,17.68-7.7,21.22-15.05a37.34,37.34,0,0,0,3.71-16.19A46.42,46.42,0,0,0,292.42,212.35Z"/><path class="cls-12" d="M306.55,206.12a25.45,25.45,0,0,0-6.37-2.89,30.17,30.17,0,0,0-6.91-1.4,17.38,17.38,0,0,0-6.5.53,11.93,11.93,0,0,0-5.1,3.26.28.28,0,0,0,.29.46,46.14,46.14,0,0,1,5.59-1.14,30.18,30.18,0,0,1,12.38.23c2.16.41,4.26,1.14,6.43,1.42A.26.26,0,0,0,306.55,206.12Z"/><path class="cls-12" d="M269.72,177.58c-.31-.22-.64-.41-.94-.64a16.13,16.13,0,0,1-1.75-1.56c-.56-.58-1.13-1.17-1.65-1.8-.27-.32-.57-.63-.86-.93s-.32-.29-.45-.45a5.54,5.54,0,0,1-.42-.65c-.19-.31-.68,0-.48.3a4.41,4.41,0,0,1,.42.64,5.64,5.64,0,0,1,.25.64,10.64,10.64,0,0,0,.58,1.23,11.18,11.18,0,0,0,1.62,2.25,6.76,6.76,0,0,0,2.1,1.49,4.5,4.5,0,0,0,1.2.36,2,2,0,0,0,1.11-.08.16.16,0,0,0,.05-.23A3.73,3.73,0,0,0,269.72,177.58Z"/><path class="cls-9" d="M48.07,344.36c8.78-1.15,12.25,6.7,12.25,6.7s4.44-9.9,13.46-9.87c4.64,0,8.7,7.44,8.7,7.44s3.91-7.78,11.92-7.26c6.39.41,9.5,7.79,9.5,7.79s7.23-5.72,13.6-3.21c12.93,5.08,15.18,60-4.7,69.31-9.27,4.34-9.09-9.11-9.09-9.11s-4.93,19.27-16.24,20-10-16.7-10-16.7-4.93,18.63-16.74,18.23c-12.28-.42-8-17.66-8-17.66S44.92,422.6,36,420.22c-14.81-3.92,1.94-29.91-1.41-41.86H3.83S26.2,347.22,48.07,344.36Z"/><path class="cls-9" d="M119.11,360.21c12.37,2,23.81-15,35.92-14.81,16.39.33,6,28-16.61,32.91l-19.26.05Z"/><path class="cls-12" d="M104.56,350.25a.14.14,0,0,1,.28-.06c5.14,17.88,5.31,39.1-1,56.7-.21.58-1.24.49-1.13-.19C105.75,387.3,106.94,369.84,104.56,350.25Z"/><path class="cls-12" d="M82.58,348.36c0-.22.33-.26.39,0,5.2,18.45,4.73,42.36-5,61.79-.34.66-1.3.92-1,.13C82.49,396.83,84.82,366,82.58,348.36Z"/><path class="cls-12" d="M51.55,411.25c8.6-19,10.25-38.82,9-59.44,0-.27.37-.26.44,0,3.35,9.92,2.77,23.14,1.44,33.39a54.9,54.9,0,0,1-10.24,26.39C52,411.86,51.36,411.65,51.55,411.25Z"/><path class="cls-12" d="M14,365.11c-.21.21.11.52.33.33,9.33-8.08,36.71-31.59,46.2-13.63.33.63,1,.89.74.08C58.35,340.6,46.6,333.76,14,365.11Z"/><path class="cls-12" d="M70.93,340.09a14.26,14.26,0,0,0-10.45,12c0,.41.62.6.78.22,1.64-3.86,3.46-7.24,7.34-9.24,5.93-3.07,10.69.93,13.77,5.83a.48.48,0,0,0,.87-.36C81.81,343.28,76.46,338.84,70.93,340.09Z"/><path class="cls-12" d="M95,340c-5.63-.48-10.13,3.54-12.39,8.14-.4.83.5.83.56.76,3.4-3.41,6.77-7.56,12.13-6.52,4.09.79,6.45,4.13,8.89,7.12.22.28.59,0,.54-.32A11.09,11.09,0,0,0,95,340Z"/><path class="cls-12" d="M127.81,378.36c0,.18-.29.22-.32,0-2.23-9.9-3.09-32.2-14.67-32.2h-.14a13,13,0,0,0-8.14,3.37c-.11.1-.25,0-.18-.11,3.08-6,10.79-7.28,15.2-3a.75.75,0,0,1,.22.22C127.06,353.19,128.31,372.19,127.81,378.36Z"/><path class="cls-5" d="M319.71,74.12c-3.44,43-39.3,56-39.3,56-2.63,6.54-6.07,23.18-6.07,23.18H226.48s-3.43-16.64-6.07-23.18c0,0-35.86-13-39.29-56C178.73,44.21,200,0,250.15,0h.52C300.8,0,322.09,44.21,319.71,74.12Z"/><path class="cls-5" d="M313.79,74.33c-3.14,39.37-35.94,51.23-35.94,51.23-2.41,6-5.55,27.75-5.55,27.75H228.52s-3.14-21.76-5.55-27.75c0,0-32.79-11.86-35.94-51.23C184.85,47,204.33,6.55,250.17,6.54h.48C296.5,6.55,316,47,313.79,74.33Z"/><rect class="cls-16" x="228.58" y="81.37" width="6.32" height="76.66" transform="translate(-18.03 44.57) rotate(-10.58)"/><rect class="cls-16" x="230.76" y="116.53" width="76.66" height="6.32" transform="translate(102.11 362.29) rotate(-79.44)"/><path class="cls-16" d="M250.42,107.52c-4.45,0-8.3-3.86-11.06-8.77a5.76,5.76,0,0,1-4,2h0c-7.34,0-10.2-14-10.5-15.61L227,84.7c.73,3.87,3.67,13.9,8.43,13.9h0a4.34,4.34,0,0,0,3-1.84,33.41,33.41,0,0,1-3.46-13.25c0-6.23,3.27-6.91,4.68-6.91,3.41,0,5.37,2.66,5.37,7.31A25.25,25.25,0,0,1,240.8,97c2.52,4.71,6,8.41,9.61,8.41h0c3.74,0,6.57-4,7.93-6.3.15-.26.29-.52.43-.78a13.69,13.69,0,0,1-1.52-2.17c-3-5.21-3.62-13-1.32-16.93a4.74,4.74,0,0,1,4.22-2.64h0a3.78,3.78,0,0,1,3.38,2.06c2.13,3.69,1,12.36-2.2,19.27a6.32,6.32,0,0,0,4.2,1.64h0c3.6,0,7.33-8.6,8.84-14l2,.57c-.44,1.59-4.51,15.56-10.87,15.56h0a8.36,8.36,0,0,1-5.18-1.83l-.18.33C257.4,105,254,107.52,250.42,107.52Zm9.74-28.81h0a2.68,2.68,0,0,0-2.4,1.58c-1.93,3.34-1.31,10.27,1.32,14.83a12.88,12.88,0,0,0,.72,1.1c2.63-6.08,3.61-13.57,1.91-16.5A1.68,1.68,0,0,0,260.16,78.71Zm-20.61,0c-2.13,0-2.57,2.61-2.57,4.8a29.67,29.67,0,0,0,2.73,11.27,23,23,0,0,0,3.1-10.87C242.81,81.54,242.25,78.71,239.55,78.71Z"/><rect class="cls-17" x="220.43" y="153.37" width="59.96" height="33"/><path class="cls-17" d="M273.59,186.36c-3.52,6.25-10.28,11.85-23.18,11.85s-19.65-5.6-23.18-11.85Z"/><path class="cls-18" d="M273.59,186.36a22.2,22.2,0,0,1-3.88,5.08l-41.28-3.17a21.65,21.65,0,0,1-1.2-1.91Z"/><polygon class="cls-18" points="282.14 159.66 218.68 165.53 218.68 162.65 282.14 156.78 282.14 159.66"/><polygon class="cls-18" points="282.14 168.37 218.68 174.24 218.68 171.36 282.14 165.49 282.14 168.37"/><polygon class="cls-18" points="282.14 177.08 218.68 182.95 218.68 180.07 282.14 174.2 282.14 177.08"/><g class="cls-19"><path class="cls-16" d="M196.22,64.06c2.2.37,5.05-11,17.25-24.1,5.42-5.84,26-13.14,24.49-19.87s-19.82.19-29.05,10.88C194.07,48.17,194.2,63.72,196.22,64.06Z"/><path class="cls-16" d="M304.39,66.43c4,0,4.05-6.29,0-6.29S300.34,66.43,304.39,66.43Z"/><path class="cls-16" d="M284.6,113.68c2.21,1.69,12.94-8.21,17.78-20,4-9.8,4.71-22.2,2-22.92s-4.45,16.29-7.7,22.56C292.59,101.19,282.24,111.88,284.6,113.68Z"/></g></g></g></svg>

