<svg xmlns="http://www.w3.org/2000/svg" viewBox="0 0 460.59 229.79"><defs><style>.cls-1{fill:#c76062;}.cls-2{fill:#c76162;}.cls-3{fill:#c76163;}.cls-4{fill:#c66062;}.cls-5{fill:#635e6a;}.cls-6{fill:#524e5b;}.cls-7{fill:#e9e8e9;}.cls-8{fill:#e9e8e6;}.cls-9{fill:#c46062;}.cls-10{fill:#c5d656;}.cls-11{fill:#756f78;}.cls-12{fill:#c76261;}.cls-13{fill:#c56161;}</style></defs><g id="Layer_2" data-name="Layer 2"><g id="Map"><g id="wcJS5O.tif"><path class="cls-1" d="M460.59,122.57v5.53c-1.55.68-1.07,2.17-1.28,3.34-2.5,14.11-6.23,27.79-14.15,40-6.52-13.82-15-26.26-27.16-35.72-27-20.92-56.87-25.52-89.25-15.12-7.24-18.23-13.7-36.75-19.92-55.35,5-4.85,10.08-9.69,15.07-14.58a7.85,7.85,0,0,0,1.93-9.12c-1.46-3.56-4.29-5.3-8.28-5.22-5.53.11-11.06,0-16.59,0-9.4,0-18.81-.11-28.21.12a8.18,8.18,0,0,0-8.15,8.08c-.08,4.35,3.15,7.87,7.89,8.38,2.19.23,4.42,0,6.62.17,5.83.41,11.77-1.08,17.5,1l0-.07-.94,1c-3.92,2.84-5.48,6.49-3.38,11.05,1.86,4,0,5.41-3.6,6.71C277.1,77,267,83.65,257.77,91.8c-12.27,10.86-21.64,24.08-31.26,37.13-5.36,7.28-10.8,14.47-17.64,20.49-3,2.65-4.92,2.39-6.32-1.66-7.23-20.87-14.6-41.69-21.92-62.53l6.08-.25c7.77-.36,13.26-5.68,13.18-12.78-.08-6.83-5.39-12.35-12.9-12.51q-18.78-.4-37.59,0a12.24,12.24,0,0,0-12.46,12.75c.06,7.12,5.1,12.19,12.69,12.51,4.79.19,9.59.08,14.38.11,2.49,7.27,4.91,14.56,7.48,21.8,6.77,19.1,6.79,19.09-9.14,31.74-1.62-1.22-3.24-2.43-4.85-3.66-21.5-16.45-45.72-23-72.38-18.23-32.82,5.86-55.61,24.92-69.35,55C-6.64,130.38-5.3,89.45,20.63,50.58,43.71,16,77.8.16,119.26.09q80.09-.15,160.17,0c23.64,0,47.3-.41,70.91.5,52.52,2,95.51,38.28,107.35,89.52,1,4.19.74,8.66,2.9,12.58v5.52A20.77,20.77,0,0,0,460.59,122.57Z"/><path class="cls-2" d="M358.61,229.79H303.18a23.89,23.89,0,0,0-.56-3.19c-8.3-27-.47-51.59,22-69a142.91,142.91,0,0,0,14.82,30c2.63,3.95,4.77,8.23,7.13,12.36-3.43,8.5-1.3,15.94,5.75,20.06a15.57,15.57,0,0,0,19.95-3.57c7.85-10.08,1.81-22.87-11.83-25-8.25-13.2-17.57-25.84-21.27-41.36a52.84,52.84,0,0,1,25.93-3.74c30.54,3.43,51.26,23.83,55.85,54.81-13.73,12.87-30.14,20.62-48.18,25.43C368.08,227.77,363,227.41,358.61,229.79Z"/><path class="cls-3" d="M101.44,229.79c-4-2.4-8.76-2.1-13.12-3.24C70.2,221.82,53.78,214,40,201.15a63.88,63.88,0,0,1,7.34-23.52c17.47-31.45,59.72-43,91.83-18-10.72,11.64-22.76,21.88-34.49,32.45-7.92-2-15.57,1.78-18.37,9a15.32,15.32,0,0,0,7.26,19.25c7.27,3.79,15.16,1.59,20.16-5.62,15.8-.55,31.61-.41,47.41-.08L158,229.79Z"/><path class="cls-4" d="M271,229.79H250c5-12.27,5.18-24.07-3.5-35,5.81-8.15,9.88-17.25,14.25-26.18,6.73-13.73,13.22-27.58,22.65-39.78a72.56,72.56,0,0,1,19.92-18.13c2.95-1.78,4.64-1.31,5.69,2.1,1.58,5.09,3.41,10.1,5.14,15.14-21.14,11.91-34.73,29.84-41.89,52.72C267.16,196.88,267.72,213.33,271,229.79Z"/><path class="cls-5" d="M246.48,194.8c8.68,10.92,8.49,22.72,3.5,35H195.66c-.89-4.31-3.45-8.16-3.46-12.7l-.18-2.42c.53-5.45,2.26-10.59,4.1-15.7l5.26-7,14.27-7.54A32.61,32.61,0,0,1,234,185.78,69,69,0,0,1,246.48,194.8ZM218.75,228c-1.11-4.1-2.37-7.86-3.14-11.72-.84-4.26.5-7.84,5-9.14s7.87.73,9.58,5.12c.94,2.4,1.63,4.88,2.55,7.28.42,1.12.49,2.94,2.16,2.74,1.36-.16,1.71-1.77,2.11-3,1.88-5.78.59-10.9-3.5-15.29-4.41-4.74-10-5.18-15.82-3.58-6.11,1.71-10.26,8.4-9.85,15C208.23,221.71,212.12,226.41,218.75,228Z"/><path class="cls-6" d="M271,229.79c-3.32-16.46-3.88-32.91,1.2-49.12C279.4,157.79,293,139.86,314.13,128q2.55,7.17,5.12,14.34C297.88,156.58,286,176.39,283.83,202c-.79,9.44,1.39,18.54,2.72,27.75Z"/><path class="cls-7" d="M286.55,229.79c-1.33-9.21-3.51-18.31-2.72-27.75,2.13-25.65,14.05-45.46,35.42-59.73a92.85,92.85,0,0,1,5.37,15.27c-22.47,17.43-30.3,42-22,69a23.89,23.89,0,0,1,.56,3.19Z"/><path class="cls-8" d="M158,229.79l3.15-15.1a90.46,90.46,0,0,1,15.7.12c-.06,5.09-2.72,9.8-2.22,15Z"/><path class="cls-6" d="M174.6,229.79c-.5-5.18,2.16-9.89,2.22-15l15.2-.14.18,2.42a55.69,55.69,0,0,0-2.08,12.7Z"/><path class="cls-9" d="M190.12,229.79a55.69,55.69,0,0,1,2.08-12.7c0,4.54,2.57,8.39,3.46,12.7Z"/><path class="cls-3" d="M460.59,122.57a20.77,20.77,0,0,1,0-14.37Z"/><path class="cls-10" d="M192,214.67l-15.2.14a90.46,90.46,0,0,0-15.7-.12c-15.8-.33-31.61-.47-47.41.08-4-.11-8-.29-12.06-.3s-6.74-1.41-8.19-5.15.09-6.38,2.59-8.84c2.85-2.81,5.74-5.59,8.61-8.38,11.73-10.57,23.77-20.81,34.49-32.45,4.57-2.67,7.93-6.69,11.6-10.36a82.24,82.24,0,0,0,11.6-10.7c15.93-12.65,15.91-12.64,9.14-31.74-2.57-7.24-5-14.53-7.48-21.8,5.55-.26,11.09-.58,16.62.18,7.32,20.84,14.69,41.66,21.92,62.53,1.4,4.05,3.3,4.31,6.32,1.66,6.84-6,12.28-13.21,17.64-20.49,9.62-13.05,19-26.27,31.26-37.13,9.21-8.15,19.33-14.79,30.9-19,3.55-1.3,5.46-2.68,3.6-6.71-2.1-4.56-.54-8.21,3.37-11.05l.95-1,0,.07c7.93-.48,10,5.41,12.22,11.16,6.22,18.6,12.68,37.12,19.92,55.35A67.21,67.21,0,0,0,334,135.09,91.07,91.07,0,0,0,339.17,150c3.7,15.52,13,28.16,21.27,41.36,2,3.51,4,7,5.89,10.54,2.4,4.51,1.6,9-1.91,11.25-3.85,2.49-8.34,1.32-11.33-3.09-2.26-3.33-4.35-6.77-6.52-10.16-2.36-4.13-4.5-8.41-7.13-12.36a142.91,142.91,0,0,1-14.82-30,92.63,92.63,0,0,0-5.37-15.28q-2.56-7.19-5.12-14.35c-1.73-5-3.56-10.06-5.14-15.15-1.05-3.41-2.74-3.88-5.69-2.1a72.56,72.56,0,0,0-19.92,18.13c-9.43,12.2-15.92,26-22.65,39.78-4.37,8.93-8.44,18-14.25,26.18a69,69,0,0,0-12.51-9c7.57-12.05,13-25.19,19.48-37.8,11-21.37,23.55-41.41,46-52.83,3.33-1.7,1.72-3.88,1.07-6.05-.8-2.67-2.42-3.35-5.07-2.34A89.89,89.89,0,0,0,282,93.16c-15.34,9-26.23,22.43-36.57,36.42-7.55,10.22-14.85,20.62-23.93,29.65-3.57,3.55-10.53,4.86-10.69,10.13-.15,5,3.11,10.06,4.87,15.1L201.38,192q-6.58-19-13.16-37.94c-4.82-14-4.81-14-15.49-3.17l-10.64,10.25c-4.2,3.28-8.55,6.42-11.36,11.12-10.64,7.22-18.8,17.1-28.62,25.22l.66,1.31h38.42l15.58,0,15.38,0,4,.2C194.28,204.08,192.55,209.22,192,214.67Z"/><path class="cls-6" d="M162.35,138.59a82.24,82.24,0,0,1-11.6,10.7c-24.29-22-62.12-25.1-90.38-7.26C43.52,152.67,31.86,167.28,27.22,187c-6-3.47-8.39-9.59-11.45-15.23,13.74-30.1,36.53-49.16,69.35-55,26.66-4.77,50.88,1.78,72.38,18.23C159.11,136.16,160.73,137.37,162.35,138.59Z"/><path class="cls-6" d="M334,135.09a67.21,67.21,0,0,1-5.21-14.49c32.38-10.4,62.26-5.8,89.25,15.12,12.21,9.46,20.64,21.9,27.16,35.72a47.24,47.24,0,0,1-11.09,16.1,24.11,24.11,0,0,0-.52-2.69C420.14,142.47,376.75,120.8,334,135.09Z"/><path class="cls-5" d="M180.63,85.23c-5.53-.76-11.07-.44-16.62-.18-4.79,0-9.59.08-14.38-.11C142,84.62,137,79.55,136.94,72.43A12.24,12.24,0,0,1,149.4,59.68q18.78-.39,37.59,0c7.51.16,12.82,5.68,12.9,12.51.08,7.1-5.41,12.42-13.18,12.78Z"/><path class="cls-5" d="M308.83,65.25c-2.2-5.75-4.29-11.64-12.22-11.16-5.73-2.07-11.67-.58-17.5-1-2.2-.16-4.43.06-6.62-.17-4.74-.51-8-4-7.89-8.38a8.18,8.18,0,0,1,8.15-8.08c9.4-.23,18.81-.1,28.21-.12,5.53,0,11.06.09,16.59,0,4-.08,6.82,1.66,8.28,5.22a7.85,7.85,0,0,1-1.93,9.12C318.91,55.56,313.86,60.4,308.83,65.25Z"/><path class="cls-5" d="M296.59,54l-.95,1Z"/><path class="cls-7" d="M27.22,187c4.64-19.67,16.3-34.28,33.15-44.92,28.26-17.84,66.09-14.71,90.38,7.26-3.67,3.67-7,7.69-11.6,10.36-32.11-25.07-74.36-13.47-91.83,18A63.88,63.88,0,0,0,40,201.15C34.77,197.27,29.21,193.71,27.22,187Z"/><path class="cls-7" d="M334,135.09c42.79-14.29,86.18,7.38,99.59,49.76a24.11,24.11,0,0,1,.52,2.69c-2.9,5.93-7.53,10.21-13.12,13.55-4.59-31-25.31-51.38-55.85-54.81A52.84,52.84,0,0,0,339.17,150,91.07,91.07,0,0,1,334,135.09Z"/><path class="cls-11" d="M346.57,199.92c2.17,3.39,4.26,6.83,6.52,10.16,3,4.41,7.48,5.58,11.33,3.09,3.51-2.27,4.31-6.74,1.91-11.25-1.9-3.55-3.92-7-5.89-10.54,13.64,2.16,19.68,15,11.83,25A15.57,15.57,0,0,1,352.32,220C345.27,215.86,343.14,208.42,346.57,199.92Z"/><path class="cls-11" d="M104.66,192.1c-2.87,2.79-5.76,5.57-8.61,8.38-2.5,2.46-4,5.24-2.59,8.84s4.32,5.15,8.19,5.15,8,.19,12.06.3c-5,7.21-12.89,9.41-20.16,5.62a15.32,15.32,0,0,1-7.26-19.25C89.09,193.88,96.74,190.11,104.66,192.1Z"/><path class="cls-12" d="M215.65,184.46c-1.76-5-5-10.12-4.87-15.1.16-5.27,7.12-6.58,10.69-10.13,9.08-9,16.38-19.43,23.93-29.65,10.34-14,21.23-27.42,36.57-36.42a89.89,89.89,0,0,1,13.48-6.4c2.65-1,4.27-.33,5.07,2.34.65,2.17,2.26,4.35-1.07,6.05-22.45,11.42-35,31.46-46,52.83-6.47,12.61-11.91,25.75-19.48,37.8A32.61,32.61,0,0,0,215.65,184.46Z"/><path class="cls-13" d="M196.12,199l-4-.2c-.34-2.53-.55-5.08-1-7.58-2.89-14.9-8.06-28.77-18.38-40.31,10.68-10.8,10.67-10.8,15.49,3.17q6.57,19,13.16,37.94Z"/><path class="cls-9" d="M218.75,228c-6.63-1.54-10.52-6.24-10.91-12.56-.41-6.61,3.74-13.3,9.85-15,5.78-1.6,11.41-1.16,15.82,3.58,4.09,4.39,5.38,9.51,3.5,15.29-.4,1.21-.75,2.82-2.11,3-1.67.2-1.74-1.62-2.16-2.74-.92-2.4-1.61-4.88-2.55-7.28-1.71-4.39-4.94-6.47-9.58-5.12s-5.84,4.88-5,9.14C216.38,220.09,217.64,223.85,218.75,228Z"/><path class="cls-6" d="M172.73,150.88c10.32,11.54,15.49,25.41,18.38,40.31.49,2.5.7,5.05,1,7.58l-15.38,0c-1.41-13.89-6.6-26.32-14.68-37.63Q167.41,156,172.73,150.88Z"/><path class="cls-3" d="M161.19,198.78H122.77l-.66-1.31c9.82-8.12,18-18,28.62-25.22C156.36,180.25,159.51,189.23,161.19,198.78Z"/><path class="cls-7" d="M161.19,198.78c-1.68-9.55-4.83-18.53-10.46-26.53,2.81-4.7,7.16-7.84,11.36-11.12,8.08,11.3,13.27,23.73,14.68,37.62Z"/></g></g></g></svg>