<svg xmlns="http://www.w3.org/2000/svg" viewBox="0 0 460.44 229.94"><defs><style>.cls-1{fill:#86c4c4;}.cls-2{fill:#d8e6e8;}.cls-3{fill:#c1dedf;}</style></defs><g id="Layer_2" data-name="Layer 2"><g id="Map"><g id="bFycx4.tif"><path class="cls-1" d="M315.23,229.94H235.42c1.63-2.73,4.48-4.6,5.56-7.72,20.32-21.24,26.6-66.59,12.52-94C232.93,88.1,212,48.2,191.2,8.2c-1.33-2.56-3.55-4.79-3.28-8,23.62,0,47.24-.14,70.86,0,31.18.22,62.37-.94,93.53.62,52.81,2.66,97.58,42.79,106.14,94.75.46,2.79.06,5.87,2,8.35v23.21c-2,2.26-1.49,5.19-2,7.8-9.24,44.95-35.7,74.74-79.1,89.7-2.07.72-4.17,1.53-6.45.94l3.52-5.48c11.17-10.92,14.55-33.54,7.08-48.45-4.46-8.88-9.16-17.64-13.76-26.45q-12.52-24-25.07-47.95c-2.54-4.83-4.37-5.27-6.31-1.43-8.81,17.39-18.63,34.27-26.61,52.09-6.06,9.44-12.23,19.16-15,29.88C291.28,198.8,298,216.45,315.23,229.94Z"/><path class="cls-2" d="M187.92.18c-.27,3.23,2,5.46,3.28,8,20.77,40,41.73,79.9,62.3,120,14.08,27.44,7.8,72.79-12.52,94-5.94,1.66-11.91,3.18-17.79,5-2.25.7-5.41-.56-6.62,2.71h-2.21a2.1,2.1,0,0,0-3.33,0H194.4a35.5,35.5,0,0,0-5.71-1.92,89.5,89.5,0,0,1-46-21.21c-20.34-17.73-31.06-39.78-31.4-66.68-.23-17.85,0-35.72-.07-53.58,0-2.35.52-4.82-1.09-6.94a21.81,21.81,0,0,1,1.07-3.1Q129,42.36,146.76,8.23c1.33-2.57,3.32-4.89,3.14-8Z"/><path class="cls-3" d="M103.51,229.94l-2.32-1.19c-1.66-2.2-3.33-4.39-5-6.61-15.84-21.43-22.08-45.25-18.42-71.72,1.65-11.91,6.46-22.46,12.09-32.89,6.81-12.6,13-25.55,20.25-37.92,1.61,2.12,1.09,4.59,1.09,6.94,0,17.86-.16,35.73.07,53.58.34,26.9,11.06,49,31.4,66.68a89.5,89.5,0,0,0,46,21.21,35.5,35.5,0,0,1,5.71,1.92Z"/><path class="cls-3" d="M371.8,226.59c-4.55,2.23-9.84,1.35-14.45,3.35H315.23c-17.23-13.49-24-31.14-18.51-52.15,2.77-10.72,8.94-20.44,15-29.88.06,10.11,0,20.21.2,30.32a45.54,45.54,0,0,0,28.31,41.12c12,4.86,24,4,36.16.75l-3.52,5.48.06-.06Z"/><path class="cls-3" d="M216.57,229.94c1.21-3.27,4.37-2,6.62-2.71,5.88-1.84,11.85-3.36,17.79-5-1.08,3.13-3.93,5-5.56,7.73Z"/><path class="cls-3" d="M211,229.94a2.1,2.1,0,0,1,3.33,0Z"/><path class="cls-2" d="M376.39,220.1c-12.13,3.27-24.14,4.11-36.16-.75a45.54,45.54,0,0,1-28.31-41.12c-.15-10.11-.14-20.21-.2-30.32,8-17.82,17.8-34.7,26.61-52.09,1.94-3.84,3.77-3.4,6.31,1.43q12.6,23.94,25.07,47.95c4.6,8.81,9.3,17.57,13.76,26.45C390.94,186.56,387.56,209.18,376.39,220.1Z"/><path class="cls-1" d="M110.14,79.61C102.87,92,96.7,104.93,89.89,117.53c-5.63,10.43-10.44,21-12.09,32.89-3.66,26.47,2.58,50.29,18.42,71.72,1.64,2.22,3.31,4.41,5,6.61-28.4-3.18-52.34-15.5-71.12-36.67-41.18-46.39-40-112.48,3-157.18C52.67,14.52,77.15,3.21,105.62.94,120.37-.23,135.14.36,149.9.17c.18,3.17-1.81,5.49-3.14,8.06Q129,42.37,111.21,76.51A21.81,21.81,0,0,0,110.14,79.61Z"/><path class="cls-1" d="M371.8,226.59l1.13-1.07Z"/></g></g></g></svg>