<svg xmlns="http://www.w3.org/2000/svg" viewBox="0 0 456.87 229.05"><defs><style>.cls-1{fill:#3f6b83;}.cls-2{fill:#cedef0;}.cls-3{fill:#a3bdf8;}.cls-4{fill:#f1ee9c;}.cls-5{fill:#a4bdf8;}.cls-6{fill:#a4bef8;}</style></defs><g id="Layer_2" data-name="Layer 2"><g id="Map"><g id="_0PsBPx.tif" data-name="0PsBPx.tif"><path class="cls-1" d="M108.31,0H347.5c.15.22.39.17.6.18a101.57,101.57,0,0,1,11.81,1.18,116,116,0,0,1,16.85,3.93A113.65,113.65,0,0,1,400,15.57a109.65,109.65,0,0,1,19.87,14.71A115.19,115.19,0,0,1,433,44.69a118.18,118.18,0,0,1,11.45,18.15,115.76,115.76,0,0,1,11.29,36.64c.46,3.35.78,6.72.91,10.1v9.89A107.88,107.88,0,0,1,453,144c-9.55,33.91-30.15,58.72-61.81,74.2a108.38,108.38,0,0,1-43.4,10.76c0-.55,0-1.1,0-1.66v-125c0-.56,0-1.11,0-1.66V91.73c.11-.19.2-.39.32-.58,5.78-8.49,11.9-16.74,17.48-25.38,1.62-2.51,3.39-4.94,5.1-7.39.21-.31.33-.75.84-.8.24,1.27.48,2.51.71,3.74s.44,2.47.69,3.71a4.05,4.05,0,0,0,3.06,3.31c3.19.9,5.92-1.7,5.39-5.15-.31-2-.73-4-1.09-6-.91-5-1.84-10-2.72-15.06-.15-.83-.42-1-1.28-.86-2.46.53-4.95.93-7.42,1.38-4.59.83-9.17,1.64-13.75,2.5a4.34,4.34,0,1,0,1.65,8.52c.91-.17,1.81-.38,2.73-.51a41.48,41.48,0,0,1,4.68-.72c-.37.57-.62,1-.89,1.36q-4.76,6.9-9.53,13.78c-2,2.91-4.08,5.81-6.12,8.71-.07-.37-.14-.73-.2-1.09A21.53,21.53,0,0,0,304.66,78c-.25,7.53,0,15.08,0,22.63q0,12.84,0,25.69c0,3.88,0,7.76,0,11.63-.17.29-.32.58-.51.85l-15.2,21.81c-1.63,2.33-3.27,4.65-4.87,7-.46.68-.73.68-1.07-.07-.41-.91-.88-1.78-1.32-2.67,0-.48,0-1,0-1.44q0-66,0-131.95a30.94,30.94,0,0,0-.19-3.32,21.54,21.54,0,0,0-42.93,2.9v99.74c0,.48,0,1,0,1.44-.13.3-.25.61-.4.9q-5.44,10-10.88,20c-1.93,3.53-3.74,7.12-5.82,10.56q0-12.49,0-25c0-1.44,0-2.88-.05-4.32,0-.33,0-.67,0-1V32a21.19,21.19,0,0,0-.2-2.87,21.55,21.55,0,0,0-39.18-9.07,23.11,23.11,0,0,0-3.75,13.57c0,8.4,0,16.81,0,25.21q0,37.77,0,75.53a3.66,3.66,0,0,0-.14,1.64q0,36.91,0,73.83c0,.59-.06,1.18-.09,1.77-.28-.47-.58-.94-.86-1.42l-12.79-22.43c-1.86-3.27-3.69-6.56-5.54-9.84q0-9.78,0-19.58c0-1.69,0-3.39,0-5.08,0-.44,0-.89,0-1.33V79.89a21.54,21.54,0,0,0-43.08-.45q0,36.19,0,72.4c0,.48,0,1,0,1.44s0,.74,0,1.11v69c0,.37,0,.74,0,1.11L112.14,229a105.3,105.3,0,0,1-20.27-2.16c-26.19-5.37-48.09-18.17-65.09-38.73C4.13,160.76-4.06,129.22,1.86,94.24,6,69.64,17.5,48.7,35.57,31.53,55.06,13,78.34,2.65,105.18.38A9.22,9.22,0,0,0,108.31,0Z"/><path class="cls-1" d="M456.69,109.58a.23.23,0,0,1,.18,0v10a.27.27,0,0,1-.18,0Z"/><path class="cls-2" d="M178.38,134.39q0-37.75,0-75.53c0-8.4,0-16.81,0-25.21a23.11,23.11,0,0,1,3.75-13.57,21.55,21.55,0,0,1,39.18,9.07,21.19,21.19,0,0,1,.2,2.87V133.43c0,.33,0,.67,0,1l-5.44,0Z"/><path class="cls-2" d="M238.61,132.25c0-.48,0-1,0-1.44V31.07a21.54,21.54,0,0,1,42.93-2.9,30.94,30.94,0,0,1,.19,3.32q0,66,0,132c0,.48,0,1,0,1.44-.14-.22-.29-.43-.42-.65q-6-11.14-12-22.29-8.61-16-17.21-32c-.15-.28-.22-.73-.6-.73s-.46.43-.61.71c-1.87,3.41-3.71,6.83-5.58,10.24Q241.94,126.22,238.61,132.25Z"/><path class="cls-3" d="M347.76,228.94a8.4,8.4,0,0,1-1,.11H305l-.44,0c0-.19,0-.37,0-.56v-74c0-.33,0-.66,0-1,.19-.31.38-.63.59-.93q13.11-18.81,26.24-37.62c3.35-4.79,6.59-9.65,10.1-14.33h6.19c0,.55,0,1.1,0,1.66v125C347.72,227.84,347.75,228.39,347.76,228.94Z"/><path class="cls-4" d="M341.49,100.63c-3.51,4.68-6.75,9.54-10.1,14.33q-13.15,18.8-26.24,37.62c-.21.3-.4.62-.59.93s-.43.51-.61.78l-18.59,26.64c-.9,1.3-1.81,2.59-2.78,4l-.84-1.31-.21-.36c-1.93-3.8-3.92-7.57-6.06-11.26-.16-.33-.3-.67-.47-1q-11.49-21.4-23-42.79c-.13-.25-.19-.65-.52-.65s-.45.44-.6.72q-3.31,6.08-6.63,12.17-2.87,5.33-5.71,10.65c-.23.38-.47.74-.68,1.13q-5.81,10.65-11.57,21.32c-1.63,3-3.4,6-4.84,9.09-.22.34-.46.66-.65,1q-3.62,6.62-7.2,13.24Q204.87,213,196.15,229H178.06q-5.92-10.4-11.85-20.79c-2.38-4.17-4.79-8.31-7.19-12.47-.66-1.19-1.3-2.4-2-3.59-.89-1.55-.66-1.6-1.89-.18q-11.28,13.11-22.54,26.24c-3.08,3.58-6.14,7.19-9.2,10.79H112.14l3.76-4.57c.41-.43.83-.85,1.21-1.3q19.39-22.64,38.78-45.29c.52-.62,1.05-1.64,1.65-1.7.77-.07.82,1.23,1.41,1.77,1.85,3.28,3.68,6.57,5.54,9.84l12.79,22.43c.28.48.58.95.86,1.42.67,1.19,1.33,2.39,2,3.58q3.12,5.49,6.27,11c.16.27.25.72.59.74s.47-.5.67-.78a5.63,5.63,0,0,0,.38-.68q10.8-19.89,21.6-39.78c4-7.32,7.9-14.65,11.85-22,2.08-3.44,3.89-7,5.82-10.56q5.46-10,10.88-20c.15-.29.27-.6.4-.9q3.31-6,6.63-12.06c1.87-3.41,3.71-6.83,5.58-10.24.15-.28.22-.72.61-.71s.45.45.6.73q8.61,16,17.21,32,6,11.15,12,22.29c.13.22.28.43.42.65.44.89.91,1.76,1.32,2.67.34.75.61.75,1.07.07,1.6-2.35,3.24-4.67,4.87-7l15.2-21.81c.19-.27.34-.56.51-.85s.47-.56.69-.86q8.48-12.15,16.95-24.3c2.81-4,5.59-8.1,8.39-12.14.18-.23.38-.45.55-.69q4.79-6.9,9.55-13.79c2.27-3.29,4.51-6.59,6.77-9.89,2-2.9,4.09-5.8,6.12-8.71q4.78-6.87,9.53-13.78c.27-.39.52-.79.89-1.36a41.48,41.48,0,0,0-4.68.72c-.92.13-1.82.34-2.73.51A4.34,4.34,0,1,1,355,45.15c4.58-.86,9.16-1.67,13.75-2.5,2.47-.45,5-.85,7.42-1.38.86-.18,1.13,0,1.28.86.88,5,1.81,10,2.72,15.06.36,2,.78,4,1.09,6,.53,3.45-2.2,6-5.39,5.15A4.05,4.05,0,0,1,372.82,65c-.25-1.24-.46-2.48-.69-3.71s-.47-2.47-.71-3.74c-.51.05-.63.49-.84.8-1.71,2.45-3.48,4.88-5.1,7.39-5.58,8.64-11.7,16.89-17.48,25.38-.12.19-.21.39-.32.58Q344.45,96.1,341.49,100.63Z"/><path class="cls-2" d="M115.9,153.28c0-.48,0-1,0-1.44q0-36.2,0-72.4a21.54,21.54,0,0,1,43.08.45V152c0,.44,0,.89,0,1.33Z"/><path class="cls-3" d="M221.51,163.73c-3.95,7.32-7.88,14.65-11.85,22q-10.78,19.89-21.6,39.78a5.63,5.63,0,0,1-.38.68c-.2.28-.22.8-.67.78s-.43-.47-.59-.74q-3.15-5.49-6.27-11c-.68-1.19-1.34-2.39-2-3.58,0-.59.09-1.18.09-1.77q0-36.92,0-73.83a3.66,3.66,0,0,1,.14-1.64l37.63,0,5.44,0c0,1.44.05,2.88.05,4.32Q221.52,151.25,221.51,163.73Z"/><path class="cls-3" d="M115.9,153.28h43c0,1.69.06,3.39,0,5.08q0,9.79,0,19.58c-.59-.54-.64-1.84-1.41-1.77-.6.06-1.13,1.08-1.65,1.7q-19.39,22.63-38.78,45.29c-.38.45-.8.87-1.21,1.3,0-.37,0-.74,0-1.11v-69C115.87,154,115.89,153.65,115.9,153.28Z"/><path class="cls-2" d="M347.53,76.29c-2.26,3.3-4.5,6.6-6.77,9.89Q336,93.08,331.21,100c-.17.24-.37.46-.55.69l-26,0c0-7.55-.22-15.1,0-22.63a21.53,21.53,0,0,1,42.67-2.81C347.39,75.56,347.46,75.92,347.53,76.29Z"/><path class="cls-5" d="M304.63,100.64l26,0c-2.8,4-5.58,8.1-8.39,12.14q-8.46,12.15-16.95,24.3c-.22.3-.46.58-.69.86,0-3.87,0-7.75,0-11.63Q304.6,113.49,304.63,100.64Z"/><path class="cls-2" d="M341.49,100.63q3-4.55,6.19-8.9v8.91Z"/><path class="cls-3" d="M275.47,172c2.14,3.69,4.13,7.46,6.06,11.26,0,.26,0,.52,0,.78V219.3a2.16,2.16,0,0,0,.17,1.09c-.16,2.87-.18,5.75-.15,8.63l-11,0-32.17,0c0-.52,0-1,0-1.55v-54a2.5,2.5,0,0,1,.2-1.52Z"/><path class="cls-1" d="M281.51,229c0-2.88,0-5.76.15-8.63,0-.45,0-.89,0-1.33V185c0-.48,0-1,.05-1.44l.84,1.31c1-1.38,1.88-2.67,2.78-4L304,154.29c.18-.27.4-.52.61-.78,0,.34,0,.67,0,1v74c0,.19,0,.37,0,.56Z"/><path class="cls-1" d="M238.59,172a2.5,2.5,0,0,0-.2,1.52v54c0,.52,0,1,0,1.55l-16.88,0c0-.18,0-.37,0-.55v-45c0-.29,0-.59-.05-.88,1.44-3.13,3.21-6.07,4.84-9.09q5.75-10.68,11.57-21.32c.21-.39.45-.75.68-1.13,0,.48,0,1,0,1.44Q238.59,162.23,238.59,172Z"/><path class="cls-5" d="M123.41,229c3.06-3.6,6.12-7.21,9.2-10.79q11.25-13.12,22.54-26.24c1.23-1.42,1-1.37,1.89.18.68,1.19,1.32,2.4,2,3.59q0,16.63,0,33.26l-32.71,0Z"/><path class="cls-6" d="M221.45,182.61c0,.29.05.59.05.88v45c0,.18,0,.37,0,.55-3.74,0-7.48.05-11.22.05l-14.11,0q8.73-16.07,17.45-32.15,3.59-6.62,7.2-13.24C221,183.27,221.23,183,221.45,182.61Z"/><path class="cls-1" d="M159,229q0-16.62,0-33.26c2.4,4.16,4.81,8.3,7.19,12.47q5.94,10.38,11.85,20.79Z"/><path class="cls-2" d="M238.59,172q0-9.72,0-19.45c0-.48,0-1,0-1.44q2.85-5.32,5.71-10.65,3.3-6.09,6.63-12.17c.15-.28.19-.73.6-.72s.39.4.52.65q11.5,21.39,23,42.79c.17.33.31.67.47,1Z"/><path class="cls-2" d="M281.74,183.59c0,.48-.05,1-.05,1.44v34c0,.44,0,.88,0,1.33a2.16,2.16,0,0,1-.17-1.09V184c0-.26,0-.52,0-.78Z"/></g></g></g></svg>