<svg xmlns="http://www.w3.org/2000/svg" viewBox="0 0 459.54 229.89"><defs><style>.cls-1{fill:#dc9569;}.cls-2{fill:#eac9a9;}.cls-3{fill:#b9955f;}.cls-4{fill:#d7b28f;}.cls-5{fill:#a88757;}.cls-6{fill:#d8b390;}.cls-7{fill:#d7b390;}</style></defs><g id="Layer_2" data-name="Layer 2"><g id="Map"><g id="D0KBg1.tif"><path class="cls-1" d="M358.53,229.89H100.26c-3-2.15-6.56-1.89-9.89-2.62C32.83,214.55-6,160.78.78,102.38c4-34.54,20.57-62,49.49-81.87a30.24,30.24,0,0,0,1.78,2.76c8.43,10.52,18.63,19.34,28.09,28.87a20,20,0,0,1,5.73,11.5,113,113,0,0,0,19.37,47c6.64,9.39,15.49,16.7,22.8,25.43-5.1,7.92-6.48,16.09-.41,24,5.67,7.39,13.54,7.93,21.93,5.74a2.56,2.56,0,0,1,.55-.05l.07.07c-.34,1.61-.63,3.23-1,4.83-3.59,14.79,8.52,26.35,23.24,22.23,1.48-.41,2.93-1.72,4.63-.57-3.33,13.55-1.34,20.72,7,25.46,7.29,4.13,16.13,2.8,22.76-3.42,10.24,8.44,19.23,8.9,26.5,1.36,7.08-5.3,7.3-12.43,5.44-20.13,4.52,3.17,7.89,7.57,11.93,11.25,6.78,6.19,13.26,7.49,20.36,4.07,9.61-3.6,12.76-10.28,10.88-23.07,4.49,1.36,6.74,5.43,9.94,8.32,5.92,5.34,12,6.32,19,2.77,6.9-2.37,10.11-7.51,11.07-14.45.83-5.95-1.84-10.72-4.92-15.39,4.69.06,9.66,2.1,13.81-1.85,5-1.06,7.86-4.64,9.65-9,3.51-8.56.65-15.76-5.34-22.13,4.71-4.91,9.58-9.68,14.1-14.76C360.12,109.09,369,95.68,373.1,79.57a68.83,68.83,0,0,0,4.31-17c.36-2.56.72-5.22,2.62-7.11,11-10.85,21.41-22.2,33-32.43a34.94,34.94,0,0,1,3.24,2.07Q455,56.48,459.54,106l-.06,18.91c-3.75,48.53-39.79,90.48-87.23,101.72C367.68,227.74,362.81,227.59,358.53,229.89Z"/><path class="cls-2" d="M94.61,2.47C99.24.3,104.36.2,109.18.16,139.92-.11,170.67,0,201.41.07a18.19,18.19,0,0,1,2.19.27c-1.41,1.68-2.72,3.46-4.26,5C189.21,15.53,179,25.63,168.86,35.81c-4.15,4.18-4.26,7-.14,10.73a39.85,39.85,0,0,0,31.55,10.38c11.91-1.1,21.19-7.07,28.86-15.76,3.2-3.62,5.58-4.2,9.27-.31,8,8.39,16.46,16.32,24.73,24.44q34.58,34.65,69.18,69.26a11.28,11.28,0,0,0,2.85,1.54c6,6.37,8.85,13.57,5.34,22.13-1.79,4.37-4.61,7.95-9.65,9a51.17,51.17,0,0,0-3.46-4.27Q289.62,125.25,251.8,87.6a18.36,18.36,0,0,0-2.44-2.24c-3-2-5.91-1.89-8.55.62s-2,5.29-.1,7.91a28.74,28.74,0,0,0,3,3.25q34.05,34,68.14,68c1.55,1.54,2.89,3.4,5.19,4,3.08,4.67,5.75,9.44,4.92,15.39-1,6.94-4.17,12.08-11.07,14.45-.36-2.16-1.94-3.49-3.37-4.92l-76-75.77c-1.57-1.56-3.11-3.22-5.3-3.87-2.78-.81-5.66-1-7.48,1.75a6,6,0,0,0,.72,7.64c1.09,1.25,2.3,2.39,3.47,3.56q25.26,25.2,50.54,50.37a49.07,49.07,0,0,1,8.42,10.15c1.88,12.79-1.27,19.47-10.89,23.08-.37-1.94-1.75-3.2-3-4.5q-34.68-34.57-69.34-69.16c-3-3-6.13-5.28-9.92-1.49s-1.45,6.89,1.56,9.88c13.22,13.12,26.37,26.31,39.6,39.43,3.27,3.25,6.51,6.5,8.87,10.51,1.86,7.7,1.64,14.83-5.44,20.13a27.1,27.1,0,0,0-2.36-3c-37.09-36.3-72.84-73.85-106.85-113.06C113.3,87.18,106.63,73.85,106.66,56.9c0-15-2.18-30-8.71-44C96.41,9.61,94.63,6.28,94.61,2.47Z"/><path class="cls-3" d="M263.13,65.29c-8.27-8.12-16.74-16.05-24.73-24.44-3.69-3.89-6.07-3.31-9.27.31-7.67,8.69-16.95,14.66-28.86,15.76a39.85,39.85,0,0,1-31.55-10.38c-4.12-3.7-4-6.55.14-10.73C179,25.63,189.21,15.53,199.34,5.35c1.54-1.55,2.85-3.33,4.26-5,48.9,0,97.79-.52,146.68.07,21.38.26,41.2,7.35,59,19.45A44.77,44.77,0,0,1,413,23c-11.57,10.23-22,21.58-33,32.43-1.9,1.89-2.26,4.55-2.62,7.11a68.83,68.83,0,0,1-4.31,17c-5.84,4.36-10.37,10.37-17.59,13C343.59,97,331.67,96.15,319.8,93c-19.11-5.12-35.89-15-52-26.14C266.47,65.87,265.37,63.76,263.13,65.29Z"/><path class="cls-4" d="M94.61,2.47c0,3.81,1.8,7.14,3.34,10.43,6.53,14,8.73,29,8.71,44,0,16.95,6.64,30.28,17.43,42.71,34,39.21,69.76,76.76,106.85,113.06a27.1,27.1,0,0,1,2.36,3c-7.27,7.54-16.26,7.08-26.5-1.36a35.24,35.24,0,0,0-2.46-3Q168,175.05,131.5,138.76a34.07,34.07,0,0,0-3.46-2.7c-7.31-8.73-16.16-16-22.8-25.43a113,113,0,0,1-19.37-47,20,20,0,0,0-5.73-11.5c-9.46-9.53-19.66-18.35-28.09-28.87a30.24,30.24,0,0,1-1.78-2.76C63.53,10.78,78.2,4.51,94.61,2.47Z"/><path class="cls-5" d="M263.13,65.29c2.24-1.53,3.34.58,4.71,1.54,16.07,11.19,32.85,21,52,26.14,11.87,3.18,23.79,4,35.71-.38,7.22-2.65,11.75-8.66,17.59-13-4.08,16.11-13,29.52-23.84,41.76-4.52,5.08-9.39,9.85-14.1,14.76a11.28,11.28,0,0,1-2.85-1.54Q297.69,100,263.13,65.29Z"/><path class="cls-5" d="M128,136.06a34.07,34.07,0,0,1,3.46,2.7Q168,175,204.34,211.38a35.24,35.24,0,0,1,2.46,3c-6.63,6.22-15.47,7.55-22.76,3.42-8.35-4.74-10.34-11.91-7-25.46-1.7-1.15-3.15.16-4.63.57-14.72,4.12-26.83-7.44-23.24-22.23.39-1.6.68-3.22,1-4.83l.19-.25-.26.18a2.56,2.56,0,0,0-.55.05c-8.39,2.19-16.26,1.65-21.93-5.74C121.56,152.15,122.94,144,128,136.06Z"/><path class="cls-6" d="M281.91,187.83a49.07,49.07,0,0,0-8.42-10.15Q248.17,152.54,223,127.31c-1.17-1.17-2.38-2.31-3.47-3.56a6,6,0,0,1-.72-7.64c1.82-2.8,4.7-2.56,7.48-1.75,2.19.65,3.73,2.31,5.3,3.87l76,75.77c1.43,1.43,3,2.76,3.37,4.92-7.08,3.55-13.12,2.57-19-2.77C288.65,193.26,286.4,189.19,281.91,187.83Z"/><path class="cls-7" d="M317,169.08c-2.3-.59-3.64-2.45-5.19-4q-34.1-34-68.14-67.95a28.74,28.74,0,0,1-3-3.25c-1.94-2.62-2.6-5.36.1-7.91s5.57-2.64,8.55-.62a18.36,18.36,0,0,1,2.44,2.24q37.8,37.66,75.59,75.36a51.17,51.17,0,0,1,3.46,4.27C326.7,171.18,321.73,169.14,317,169.08Z"/><path class="cls-4" d="M238.74,195.58c-2.36-4-5.6-7.26-8.87-10.51-13.23-13.12-26.38-26.31-39.6-39.43-3-3-5.35-6.08-1.56-9.88s6.92-1.51,9.92,1.49q34.65,34.6,69.34,69.16c1.3,1.3,2.68,2.56,3,4.5-7.09,3.41-13.57,2.11-20.35-4.08C246.63,203.15,243.26,198.75,238.74,195.58Z"/><polygon class="cls-1" points="150.11 165.75 150.38 165.57 150.18 165.82 150.11 165.75"/></g></g></g></svg>