<svg xmlns="http://www.w3.org/2000/svg" xmlns:xlink="http://www.w3.org/1999/xlink" viewBox="0 0 309.68 325.36"><defs><style>.cls-1,.cls-12{fill:none;}.cls-2{fill:#fff;}.cls-3{fill:#ebebeb;}.cls-4{fill:#a6a6a6;}.cls-5{fill:#ffc727;}.cls-6{clip-path:url(#clip-path);}.cls-7{fill:#42673f;}.cls-8{fill:#f7a9a0;}.cls-9{fill:#84ac8f;}.cls-10{fill:#455b4a;}.cls-11{fill:#263238;}.cls-12{stroke:#f3a59c;stroke-linecap:round;stroke-linejoin:round;stroke-width:0;}.cls-13{fill:#ff99ba;}.cls-14{fill:#455a64;}.cls-15{fill:#c76a6d;}</style><clipPath id="clip-path"><rect class="cls-1" x="50.69" y="105.73" width="187.66" height="187.66"/></clipPath></defs><g id="Layer_2" data-name="Layer 2"><g id="Map"><rect class="cls-2" x="50.69" y="105.73" width="187.66" height="187.66"/><path class="cls-3" d="M238.8,293.84H50.24V105.27H238.8Zm-187.66-.91H237.9V106.18H51.14Z"/><path class="cls-4" d="M71.29,116.86a5.53,5.53,0,1,1-5.52-5.52A5.53,5.53,0,0,1,71.29,116.86Z"/><path class="cls-3" d="M93.84,116.86a5.52,5.52,0,1,1-5.52-5.52A5.53,5.53,0,0,1,93.84,116.86Z"/><circle class="cls-5" cx="110.88" cy="116.86" r="5.52"/><rect class="cls-3" x="50.69" y="127.23" width="187.66" height="0.91"/><g class="cls-6"><path class="cls-7" d="M121,293.38c-.37.64-.76,1.27-1.18,1.93a61.75,61.75,0,0,0-6.84-1.93Z"/><path class="cls-8" d="M141.92,223.19c9.23,12.75,39.64,42.43,67.42,39,15.91-2,32.26-50.47,34.38-64,3.76-24.17,2.51-58.48-6.7-56.29-11.49,2.73-38,74.22-45.56,77.52-6.74,3-18.84-2.85-42.34-13.88C136.14,199.4,135.78,214.7,141.92,223.19Z"/><path class="cls-9" d="M220.66,161.25c2.72-1,23.12,42,23.06,45.51s-14.53,53.66-34.32,56.83S163.75,249.63,148,232s-16.94-34.88,5.89-25.36,35,14.71,37.61,12.74S218.49,162,220.66,161.25Z"/><path class="cls-10" d="M189.86,261.3c-15.23-5.15-31-17.09-41.89-29.3-13.81-15.38-16.42-30.5-1.65-27.72Z"/><path class="cls-8" d="M143.18,219.81c-6.66,2.39-19.59-6.73-25.18-14.67-.38-.55-.19-6.77-.31-14.34-.09-4.6-.3-9.71-.83-14.36-.11-1,3.34.43,3.34.43l6.19.77,20.46,2.57s-1.76,10.08-.79,18.19a9.76,9.76,0,0,0,.41,1.88c0,.09.06.19.08.32C147.55,204.16,149.61,217.49,143.18,219.81Z"/><path class="cls-11" d="M146.47,200.28c0,.09.06.19.08.32a19.06,19.06,0,0,1-3,.5c-19.7,1.79-25-22.92-25-22.92l7.81-.54,20.46,2.57s-1.76,10.08-.79,18.19A9.76,9.76,0,0,0,146.47,200.28Z"/><path class="cls-8" d="M110.12,140.54c-2.73,10.54,4,40.36,11.72,46.74,11.14,9.26,28.75,9.45,36.45-3.8,7.47-12.84-2-51.54-10.56-57.28C135.17,117.75,114.16,125,110.12,140.54Z"/><path class="cls-12" d="M121.09,187s0,0,0,0"/><path class="cls-11" d="M135.72,158.37c0-.07-.14.13-.12.21.51,2,.76,4.37-.91,5.44-.05,0,0,.14,0,.11C136.88,163.33,136.52,160.18,135.72,158.37Z"/><path class="cls-11" d="M133.45,156.67c-3.28.47-2.1,7,1,6.58S136.21,156.27,133.45,156.67Z"/><path class="cls-11" d="M148,155.78c0-.08.17.06.19.15.3,2,1,4.32,2.94,4.66.07,0,.08.11,0,.12C148.8,160.8,147.92,157.76,148,155.78Z"/><path class="cls-11" d="M149.38,153.33c3.22-.83,4.66,5.66,1.68,6.43S146.69,154,149.38,153.33Z"/><path class="cls-11" d="M130.33,154.15c.85-.39,1.57-.89,2.37-1.35a4.44,4.44,0,0,0,2.16-1.84,1.42,1.42,0,0,0-.53-1.64,3.49,3.49,0,0,0-3.52.27,5.15,5.15,0,0,0-2.51,2.71A1.5,1.5,0,0,0,130.33,154.15Z"/><path class="cls-11" d="M151.32,149.58a24.88,24.88,0,0,1-2.73-.2,4.42,4.42,0,0,1-2.73-.74,1.41,1.41,0,0,1-.23-1.7,3.51,3.51,0,0,1,3.3-1.27,5.17,5.17,0,0,1,3.43,1.37A1.5,1.5,0,0,1,151.32,149.58Z"/><path class="cls-11" d="M137.8,177.15c.57.38,1.17.95,1.92.88a5.49,5.49,0,0,0,2.09-.91.07.07,0,0,1,.1.09,2.78,2.78,0,0,1-2.37,1.57,2.2,2.2,0,0,1-1.92-1.51C137.57,177.16,137.72,177.09,137.8,177.15Z"/><path class="cls-11" d="M138.83,170.69a7,7,0,0,0,5.16,2.24,8.82,8.82,0,0,0,2.5-.34,2.15,2.15,0,0,0,.47-.14,3.18,3.18,0,0,0,.43-.15.49.49,0,0,0,.32-.52v0a.76.76,0,0,0-.06-.2v0l0-.18c-.24-1.56-.83-3.91-.83-3.91.63.18,3.77,1,3.58.16-1.63-6.68-3.44-14.1-6.47-20.4a.19.19,0,0,0-.36.12c1.31,6.48,3.75,12.68,5.17,19.16a12.19,12.19,0,0,0-3.44-.39c-.21.1,1.21,4.51,1.26,5.22a.17.17,0,0,1,0,.08c-2.56.81-4.68.38-7.54-.92C138.81,170.39,138.68,170.55,138.83,170.69Z"/><path class="cls-11" d="M145.43,172.23a8.38,8.38,0,0,1-3,3,3.78,3.78,0,0,1-2.24.45c-1.69-.21-1.93-1.7-1.8-3a9.07,9.07,0,0,1,.46-2.06A10.76,10.76,0,0,0,145.43,172.23Z"/><path class="cls-13" d="M142.48,175.23a3.78,3.78,0,0,1-2.24.45c-1.69-.21-1.93-1.7-1.8-3C140.21,172.6,142.1,173.55,142.48,175.23Z"/><path class="cls-11" d="M112.88,163.24c6.89-1.34,5.84-14.11,5.84-14.11s11.47-4.2,11.49-13.45c0,0,12.61,5,20.83.14s4.9-15.64,3.49-17.58c-3.23-4.43-9.38,3.23-9.38,3.23s-12.42-4.61-24.82-.94c-10.08,3-13.4,13.65-13.4,13.65s-5.29,2.23-6.35,6.44S108.49,164.1,112.88,163.24Z"/><path class="cls-11" d="M116,149.75c9.39-.54,14.31-7.78,14-16.81,0-.11.16-.13.17,0,1.3,8.22-4.59,18.79-14.14,17.25C115.71,150.13,115.71,149.76,116,149.75Z"/><path class="cls-11" d="M107.15,134c.1-.05.19.1.1.17-2.34,1.68-5.11,3.13-6.46,5.81-1.64,3.23-.46,6.84,1,9.9,2.21,4.73,6,10.69,11,12.77.29.11.09.54-.19.43-5.93-2.12-10.63-9.9-12.48-15.61C98,141,101.37,136.54,107.15,134Z"/><path class="cls-11" d="M140.71,136.14a12.84,12.84,0,0,0,13.92-3c4.13-4.63,2-10.48-1-15.11-.15-.23.13-.56.33-.35,3.67,3.87,5.14,10.57,1.91,15.17-3.34,4.75-10.43,6-15.41,4C140,136.65,140.3,136,140.71,136.14Z"/><path class="cls-5" d="M135,169.35a9,9,0,1,1,7.47-12h0a9,9,0,0,1-5.3,11.54A9.25,9.25,0,0,1,135,169.35Zm-1.77-16.66a7.89,7.89,0,0,0-1.88.44,7.78,7.78,0,1,0,1.88-.44Z"/><path class="cls-5" d="M155,164.69c-3.41.36-6.88-2.8-7.92-7.37a10.67,10.67,0,0,1,.47-6.54,5.58,5.58,0,0,1,9.33-2.11,10.7,10.7,0,0,1,3.23,5.7c1.09,4.82-.94,9.41-4.53,10.22A3.7,3.7,0,0,1,155,164.69Zm-2.67-16.5a3.5,3.5,0,0,0-.45.07,4.79,4.79,0,0,0-3.23,3,9.58,9.58,0,0,0-.4,5.8c.95,4.18,4.11,7,7.07,6.37s4.57-4.61,3.62-8.79a9.5,9.5,0,0,0-2.85-5.06A4.91,4.91,0,0,0,152.36,148.19Z"/><path class="cls-5" d="M142.37,158.38l-1-.73c1.07-1.41,3.8-3.6,6.45-1.8l-.67,1C144.83,155.22,142.47,158.25,142.37,158.38Z"/><path class="cls-5" d="M105.69,169.4l-1.16-.31c.14-.54,1.45-5.31,4-6.33s16.57-3,17.25-3l.16,1.19c-4.6.59-15.14,2.23-17,3C107.28,164.54,106,168.09,105.69,169.4Z"/><path class="cls-8" d="M117.59,164.76s-7.4-9.28-11.65-6.59,1.73,16.45,7,18.05a5.26,5.26,0,0,0,6.87-3.26Z"/><path class="cls-11" d="M107.75,162.07a.07.07,0,0,0,0,.14c3.72,1.24,5.84,4.49,7.4,7.89-1.17-1.27-2.68-1.92-4.4-.52-.09.07,0,.21.11.19a3.24,3.24,0,0,1,3.63.9,15.48,15.48,0,0,1,1.89,2.78c.19.31.76.1.62-.27l0-.08C116.74,168.47,112.74,162.23,107.75,162.07Z"/><path class="cls-9" d="M179.72,293.38H121c-.37.64-.76,1.27-1.18,1.93a61.75,61.75,0,0,0-6.84-1.93H75.15c9.66-32.17,22.48-67.1,35.32-82.63a35.4,35.4,0,0,1,3-3.25,24.51,24.51,0,0,1,1.91-1.71c1.36-2-.44-9.48.53-10.23s31.77.51,32.67,1.25.09,5.37,1,6.55c.38.48,10.68,17.18,16.61,32.19C170.71,247.1,175.64,270.24,179.72,293.38Z"/><path class="cls-14" d="M118.91,197.6a23.08,23.08,0,0,1,0,7,20.87,20.87,0,0,1-.27-3.52A21.88,21.88,0,0,1,118.91,197.6Z"/><path class="cls-14" d="M122.77,197.6a23.08,23.08,0,0,1,0,7,20.88,20.88,0,0,1-.28-3.52A21.89,21.89,0,0,1,122.77,197.6Z"/><path class="cls-14" d="M126.62,197.6a21.89,21.89,0,0,1,.28,3.52,20.88,20.88,0,0,1-.28,3.52,23.08,23.08,0,0,1,0-7Z"/><path class="cls-14" d="M130.48,197.6a21.88,21.88,0,0,1,.27,3.52,20.87,20.87,0,0,1-.27,3.52,23.08,23.08,0,0,1,0-7Z"/><path class="cls-14" d="M134.33,197.6a22.27,22.27,0,0,1,0,7,23.08,23.08,0,0,1,0-7Z"/><path class="cls-14" d="M138.19,197.6a23.08,23.08,0,0,1,0,7,20.87,20.87,0,0,1-.27-3.52A21.88,21.88,0,0,1,138.19,197.6Z"/><path class="cls-14" d="M142.05,197.6a23.08,23.08,0,0,1,0,7,20.88,20.88,0,0,1-.28-3.52A21.89,21.89,0,0,1,142.05,197.6Z"/><path class="cls-14" d="M145.9,197.6a22.27,22.27,0,0,1,0,7,23.08,23.08,0,0,1,0-7Z"/><path class="cls-8" d="M126.38,282.27c-.2,1.64-2.12,5.7-5.37,11.11-.37.64-.76,1.27-1.18,1.93a61.75,61.75,0,0,0-6.84-1.93H51.48c19.44-33.81,41.9-72.86,59-82.63.46-.27.9-.51,1.32-.73,15.62-8,3.53,21.92-6.38,39.34C98.62,261.28,85.05,280,81.53,286.13c-.7,1.18-1,1.9-.84,2a.51.51,0,0,0,.57-.11,5.27,5.27,0,0,0,1-1.09c.42-.55.9-1.27,1.45-2.06s1.07-1.45,1.62-2.19c1.66-2.06,3.72-4,6.18-4.41C98.27,277.19,126.86,278.28,126.38,282.27Z"/><path class="cls-9" d="M52,270.86c17.45-22.61,36.22-44.06,46.46-53.06,6-5.26,11.2-8.89,15-10.3,8-2.93,10,3.88.73,26.06-1.3,3.07-2.63,6.05-4,8.89a.12.12,0,0,1,0,.09c-2.43,5.09-4.93,9.82-7.4,14.11a207.39,207.39,0,0,1-15.25,23,.55.55,0,0,1-.18.22c-3.46,4.5-5.67,6.91-5.67,6.91a3.86,3.86,0,0,1,.5.11.3.3,0,0,1,.13,0c3.49.65,20.4,3.92,30.72,6.44H50.8Z"/><path class="cls-10" d="M116.77,237.59a41.4,41.4,0,0,0-4.32,3.62c-.39.38-.76.78-1.15,1.17,1.8-3.07,3.58-6.15,5.25-9.28a.21.21,0,0,0-.36-.2c-5,8-9.93,16-15,23.84s-10.31,15.49-15.53,23.19c-3,4.37-5.8,8.84-8.79,13.18-.11.16.16.35.28.2,2.88-3.69,5.83-7.3,8.58-11.1s5.29-7.47,7.84-11.28q7.84-11.69,15-23.81c.46-.8.93-1.6,1.4-2.4.4-.37.83-.72,1.24-1.06.69-.6,1.38-1.22,2-1.86a43.05,43.05,0,0,0,3.67-4.08C116.94,237.65,116.86,237.53,116.77,237.59Z"/></g><path class="cls-8" d="M264.6,137.19c2.2,5.89-6,5.12-6,5.12s11.54,4,11.46,10.91c-.09,6.7-10,5.41-10.68,5.33.61.21,11.12,4.13,10.32,11.11-.84,7.24-10.53,4.25-11.15,4.05.51.39,7.18,5.57,5.37,10.73-3.12,8.87-20.54-3.91-28-2.44l1.1,12.12c0,.4-.06.82-.11,1.2l-6.17.85c-1.43-3.4-4-7.17-6.33-10.87-2.85-4.43-5.46-8.7-5.73-12a6.89,6.89,0,0,1,4.11-7.12s-5.85-3.21-5.39-8.73c.24-2.82,5-5,5-5s-4.57-2.77-3.86-7.65c.55-3.89,5.22-5.43,5.22-5.43s-3.16-4.69-1.3-8.48C226.18,123.29,259.88,124.59,264.6,137.19Z"/><path class="cls-8" d="M235.4,183.6,237,194.12c0,.4-.06.82-.11,1.2-1.6,13.52-16.38,22.78-18.07,13.16-1.3-7.32,8-15.88,5.55-23.18h0Z"/><path class="cls-11" d="M224.44,139.08a.09.09,0,0,1,0-.18c11.19-2.27,24.18-1.35,34.64,3.4.34.16.24.78-.17.68C247.16,140.15,236.54,138.57,224.44,139.08Z"/><path class="cls-11" d="M222.21,152.43c-.13,0-.14-.21,0-.24,11.54-2.28,26.14-.83,37.55,6.06.4.23.51.84,0,.6C251.86,154.84,233.1,151.92,222.21,152.43Z"/><path class="cls-11" d="M259.18,174.47c-11.2-6.19-23.25-8.16-35.92-8.41-.17,0-.15-.23,0-.27,6.23-1.57,14.29-.57,20.5.74a33.73,33.73,0,0,1,15.64,7.55C259.57,174.23,259.42,174.6,259.18,174.47Z"/><path class="cls-11" d="M237,187.91c-.4-2.11-.69-4.12-1.07-6.24,0-.2-.35-.14-.35.06,0,3,.35,6,.44,9a27.14,27.14,0,0,1-1.25,9.13,21.13,21.13,0,0,1-3.87,7c-1.78,2.11-4.29,4.47-7.21,4.61-3.07.14-4.67-2.42-4.57-5.23s1.82-5.3,3.11-7.69a29.34,29.34,0,0,0,3.26-8.15c.49-2.7-.31-5-1.5-7.42-.8-1.58-1.62-3.15-2.44-4.72a18.46,18.46,0,0,1-1.86-4.1c-.67-2.83.57-6.7,3.41-7.89A.18.18,0,1,0,223,166a9.73,9.73,0,0,0-5,5.38c-1,2.68.1,5.35,1.35,7.72q1.25,2.37,2.52,4.74c.89,1.66,1.81,3.39,1.66,5.33-.27,3.57-2.42,7-4.07,10.1-1.4,2.61-2.67,5.43-2.23,8.46a6.37,6.37,0,0,0,4.46,5.51c6,1.61,11.29-4.91,13.55-9.6a23.71,23.71,0,0,0,2.36-10.33A29.33,29.33,0,0,0,237,187.91Z"/><path class="cls-11" d="M246,183.94a15.9,15.9,0,0,0-4.07-1.84,19.43,19.43,0,0,0-4.4-.9,10.94,10.94,0,0,0-4.15.34,7.58,7.58,0,0,0-3.26,2.08.18.18,0,0,0,.18.29,28.93,28.93,0,0,1,3.57-.72,21.39,21.39,0,0,1,3.83-.34,22.28,22.28,0,0,1,4.07.48c1.38.26,2.72.73,4.11.91A.16.16,0,0,0,246,183.94Z"/><path class="cls-11" d="M222.5,165.72c-.19-.14-.4-.26-.59-.4a8.89,8.89,0,0,1-1.12-1c-.36-.37-.72-.75-1.06-1.15-.17-.2-.36-.4-.55-.59s-.2-.19-.28-.29a3.62,3.62,0,0,1-.27-.41.18.18,0,0,0-.3.19,2.85,2.85,0,0,1,.26.41,2.9,2.9,0,0,1,.16.41,7.92,7.92,0,0,0,.37.78,7.71,7.71,0,0,0,1,1.44,4.21,4.21,0,0,0,1.35.94,2.3,2.3,0,0,0,.76.23,1.22,1.22,0,0,0,.71,0,.1.1,0,0,0,0-.15A2.09,2.09,0,0,0,222.5,165.72Z"/><path class="cls-8" d="M81.05,272.16a7.6,7.6,0,0,1,7.82,4.28s2.83-6.32,8.59-6.3c3,0,5.55,4.75,5.55,4.75s2.49-5,7.61-4.64c4.08.27,6.06,5,6.06,5s4.61-3.64,8.68-2c8.25,3.24,9.68,38.29-3,44.23-5.92,2.77-5.8-5.81-5.8-5.81s-3.15,12.3-10.36,12.78-6.4-10.66-6.4-10.66-3.15,11.89-10.68,11.63c-7.84-.26-5.12-11.26-5.12-11.26s-5,8-10.68,6.49c-9.45-2.51,1.24-19.09-.9-26.72H52.81S67.09,274,81.05,272.16Z"/><path class="cls-8" d="M126.38,282.28c7.9,1.29,15.2-9.61,22.93-9.45,10.46.21,3.81,17.87-10.6,21l-12.29,0Z"/><path class="cls-11" d="M117.1,275.92c0-.11.15-.16.18,0,3.28,11.41,3.39,25-.67,36.19-.14.37-.79.31-.72-.12C117.86,299.57,118.62,288.43,117.1,275.92Z"/><path class="cls-11" d="M103.07,274.71c0-.13.21-.16.25,0,3.32,11.78,3,27-3.19,39.43-.21.43-.83.59-.62.09C103,305.65,104.5,286,103.07,274.71Z"/><path class="cls-11" d="M83.27,314.85c5.49-12.12,6.54-24.77,5.76-37.93,0-.17.23-.17.28,0,2.14,6.33,1.76,14.77.92,21.31A35,35,0,0,1,83.69,315C83.55,315.24,83.15,315.11,83.27,314.85Z"/><path class="cls-11" d="M59.33,285.41c-.13.13.07.33.21.2,6-5.15,23.43-20.15,29.49-8.69.21.4.6.56.47.05C87.61,269.76,80.11,265.4,59.33,285.41Z"/><path class="cls-11" d="M95.64,269.44A9.08,9.08,0,0,0,89,277.09c0,.25.4.37.5.13,1-2.46,2.2-4.61,4.68-5.9,3.79-1.95,6.82.6,8.79,3.73a.3.3,0,0,0,.55-.23C102.58,271.47,99.17,268.64,95.64,269.44Z"/><path class="cls-11" d="M111,269.4c-3.6-.31-6.46,2.26-7.9,5.2-.26.53.31.52.35.48,2.17-2.18,4.32-4.82,7.74-4.16,2.61.5,4.12,2.63,5.67,4.54.15.18.38,0,.35-.2A7.08,7.08,0,0,0,111,269.4Z"/><path class="cls-11" d="M131.94,293.86a.11.11,0,0,1-.21,0c-1.42-6.31-2-20.55-9.36-20.55h-.09a8.4,8.4,0,0,0-5.2,2.16c-.06.06-.16,0-.11-.07a6.15,6.15,0,0,1,9.7-1.9.42.42,0,0,1,.14.13C131.46,277.8,132.26,289.93,131.94,293.86Z"/><path class="cls-5" d="M192.05,116s1.81,17.93,16.78,22.39,23.07,1.61,32-7.69c0,0-2.43,18.21-12.55,25.09,0,0,23.88-2.91,31.57-27.76,0,0,23.06-1.65,24.27-23,0,0,22.26-7.55,25.09-27.78S302.3,51,289.36,43.3c0,0,5.18-11.61-9.5-23.14-10.3-6-22.47.48-22.47.48S251.72.81,224.21,0c-8.5,0-22.09,8.5-23.39,17.8,0,0-16.14-9.71-31,.81s-10.56,30-5.62,38.85c0,0-15.87,15.37-7.28,37.22S192.05,116,192.05,116Z"/><path class="cls-2" d="M236.93,92.23H216.79v-2A24.8,24.8,0,0,1,218,81.87,18.32,18.32,0,0,1,221.43,76a106.86,106.86,0,0,1,10.36-9.32c2.86-2.34,4.29-4.47,4.29-6.42a5.91,5.91,0,0,0-1.72-4.53,7.43,7.43,0,0,0-5.22-1.61,8.39,8.39,0,0,0-6.23,2.49c-1.64,1.66-2.69,4.55-3.15,8.69L199.2,62.76q1.05-11.34,8.24-18.25t22-6.92q11.55,0,18.65,4.83,9.64,6.51,9.64,17.38a16.78,16.78,0,0,1-2.49,8.69q-2.49,4.19-10.17,10.22-5.35,4.25-6.76,6.81A14,14,0,0,0,236.93,92.23Zm-11.32,5.35h2.55a9.51,9.51,0,0,1,9.51,9.51h0a9.51,9.51,0,0,1-9.51,9.51h-2.55a9.51,9.51,0,0,1-9.51-9.51h0A9.51,9.51,0,0,1,225.61,97.58Z"/><path class="cls-15" d="M81.39,7.33,13.14,39.65A23,23,0,0,0,2.22,70.24l22.19,46.87a23,23,0,0,0,29.34,11.47c8,7.86,20.13,10.15,18.67,8.75a30.85,30.85,0,0,1-8.23-13.64l59.06-28a23,23,0,0,0,10.92-30.59L112,18.26A23,23,0,0,0,81.39,7.33Z"/><path class="cls-2" d="M80.76,79.08l-15,7.7L65,85.28a20.79,20.79,0,0,1-2.33-6.64A15.37,15.37,0,0,1,63,73a89.39,89.39,0,0,1,4.13-10.89q1.85-4.24.74-6.41a5,5,0,0,0-3-2.71,6.18,6.18,0,0,0-4.49.8A7,7,0,0,0,56.72,58c-.58,1.86-.26,4.42,1,7.66l-16.24,6q-3.55-8.84-.87-16.72T54.31,41.34q8.58-4.41,15.7-3.55Q79.67,38.95,83.83,47a14,14,0,0,1,1.47,7.41q-.26,4.06-3.65,11.5-2.36,5.19-2.41,7.64A11.6,11.6,0,0,0,80.76,79.08Zm-6.36,8.3,1.89-1A8,8,0,0,1,87,89.84h0a8,8,0,0,1-3.43,10.7l-1.89,1A8,8,0,0,1,71,98.09h0A8,8,0,0,1,74.4,87.38Z"/></g></g></svg>