<svg xmlns="http://www.w3.org/2000/svg" viewBox="0 0 394.28 352.88"><defs><style>.cls-1,.cls-12{fill:#fff;}.cls-1,.cls-5{stroke:#ebebeb;stroke-miterlimit:10;}.cls-2{fill:#a6a6a6;}.cls-3{fill:#ebebeb;}.cls-4{fill:#ffc727;}.cls-5{fill:none;}.cls-6{fill:#263238;}.cls-7{fill:#253c45;}.cls-8{fill:#dbdbdb;}.cls-9{fill:#eb9481;}.cls-10{fill:#c76164;}.cls-11{fill:#a93244;}</style></defs><g id="Layer_2" data-name="Layer 2"><g id="Map"><rect class="cls-1" x="60.8" y="64.13" width="285.75" height="285.75"/><path class="cls-2" d="M92.17,81.08a8.41,8.41,0,1,1-8.41-8.41A8.41,8.41,0,0,1,92.17,81.08Z"/><circle class="cls-3" cx="118.1" cy="81.08" r="8.41"/><circle class="cls-4" cx="152.44" cy="81.08" r="8.41"/><line class="cls-5" x1="60.8" y1="97.56" x2="346.55" y2="97.56"/><path class="cls-4" d="M245.76,82.9A45.56,45.56,0,0,1,238,57.73C238,25.85,273,0,316.14,0s78.14,25.85,78.14,57.73-35,57.73-78.14,57.73c-20.93,0-39.9-6.06-53.92-16l-26.92,6.85Z"/><path class="cls-6" d="M344.25,57.73a8.11,8.11,0,1,0,8.1-8.11A8.1,8.1,0,0,0,344.25,57.73Z"/><path class="cls-6" d="M308,57.73a8.11,8.11,0,1,0,8.1-8.11A8.1,8.1,0,0,0,308,57.73Z"/><path class="cls-6" d="M271.81,57.73a8.11,8.11,0,1,0,8.1-8.11A8.1,8.1,0,0,0,271.81,57.73Z"/><path class="cls-7" d="M147,108.9c-16.1,20.77-17.51,51.69-17.51,51.69s-13.79,32.77-6.72,48.63a30.41,30.41,0,0,0,21.81,17.92l-2.93-8.93s7.45,11,27.9,13.19,45.91-7.31,58.67-16A52.9,52.9,0,0,0,246,195.19l-3.41,13.95S261.8,206,270.6,184s-27.86-47.18-31.46-53.16-13.09-51.76-60.69-37.52C178.45,93.35,158.11,94.61,147,108.9Z"/><path class="cls-7" d="M137.41,226.85C131.58,225,126.3,220,122.83,215a28.4,28.4,0,0,1-5.41-17.82c.38-7.65,3.48-14.75,6.48-21.69,3.11-7.16,6.75-14.12,9.73-21.33.16-.39-.44-.63-.66-.3a173.44,173.44,0,0,0-10,17.47c-3,5.61-5.85,11.38-7.45,17.55-1.45,5.61-1.9,11.75,0,17.32a29.91,29.91,0,0,0,7.72,12c4.16,4,9.08,6.27,14,9C137.52,227.46,137.75,227,137.41,226.85Z"/><path class="cls-7" d="M272,162.42c-8-16.27-24.71-25.09-35.93-38.73-6.08-7.39-11.12-15.78-18.58-21.91-.21-.17-.49.18-.3.35,6.19,5.59,10.29,12.74,15.11,19.43s10.92,12.51,17,18.2c11.13,10.32,24.43,22.5,24.3,39-.06,7.6-3.4,16.43-10.76,19.75-.28.13,0,.58.23.43a24.15,24.15,0,0,0,11.63-15.13C276.6,176.52,275.26,169.06,272,162.42Z"/><path class="cls-7" d="M273.28,166.91A31.64,31.64,0,0,0,266.65,149c-4.07-5.06-9.85-8.34-15.58-11.17-6.6-3.27-13.51-6.28-18.2-12.2-.19-.24-.54.09-.35.34,7.49,9.78,19.78,13.21,28.81,21.1,10.32,9,12.24,23.83,7.54,36.26a52,52,0,0,1-14,19.76.11.11,0,0,0,.14.16C265.57,194.22,274.2,181.33,273.28,166.91Z"/><path class="cls-2" d="M69,139.1l17.5,76.57c.77,2.25-.39,4-2.59,4l-39.29-.87a6.38,6.38,0,0,1-5.36-4.17l-17.5-76.56c-.77-2.26.4-4,2.59-4l39.29.86A6.37,6.37,0,0,1,69,139.1Z"/><path class="cls-8" d="M64.35,139l17.5,76.56c.77,2.25-.4,4-2.59,4L40,218.65a6.37,6.37,0,0,1-5.36-4.17l-17.5-76.56c-.77-2.26.39-4,2.59-4l39.29.87A6.36,6.36,0,0,1,64.35,139Z"/><path class="cls-7" d="M53.5,142.2a3.34,3.34,0,1,0,3.34-3.34A3.34,3.34,0,0,0,53.5,142.2Z"/><path class="cls-9" d="M193.11,257.19c-22.86,47.06-70.36,95.69-91,95.69-9.83,0-43.4-1.17-43.4-1.17C30.87,326.69,8,283.28,3.53,256.24,2,246.62,48.91,226.44,55.7,234.35,71.61,252.87,89.9,289,92.76,288.84c10.58-.66,52.38-34.54,81.56-58.4C209.74,201.47,202.22,238.44,193.11,257.19Z"/><path class="cls-9" d="M3,206.63c5.2-19.42,9.52-23.61,5.2-42.32C5.4,152,12,145,20.57,154.88c14,16.26,12.54,42.72,9.4,51.75Z"/><path class="cls-9" d="M5.7,264.63S-2.64,237.36.85,216.12C3.27,201.43,12.09,170.06,53.51,154c9.83-3.81,26.53-2.27,12.74,9.78-9.79,8.56-18.59,11-23.38,17,0,0,21,4.48,24.45,14.47A194.08,194.08,0,0,1,74.44,222a41,41,0,0,1-4.89,1.78s2.92,9.45-4.24,22.72Z"/><path class="cls-9" d="M5.4,202.47c6-5,18.94-15.28,32.45-20,15-5.29,45.34-11.43,49.13-.31,2.78,8.15-8.6,11.51-8.6,11.51s13.07.11,14,8c.82,7.21-8.14,9.29-8.14,9.29s7.92,1.42,7.37,8.52c-.66,8.54-17.14,4.15-25.28,12.21C64.47,233.49,5.4,202.47,5.4,202.47Z"/><path class="cls-7" d="M40.79,199.22c6.43-3.75,23.2-8.51,37.34-5.81.32.07.45.34.15.35a155.94,155.94,0,0,0-37.44,5.6C40.76,199.38,40.72,199.26,40.79,199.22Z"/><path class="cls-7" d="M46.57,214.21c5.87-2.66,23.38-6.8,37.62-3.56.32.07.43.35.12.35a167.43,167.43,0,0,0-37.7,3.35A.07.07,0,0,1,46.57,214.21Z"/><path class="cls-10" d="M123.49,266.82l48.44,35.94s23.6-31.8,29.16-60.22-8.88-28.54-30.69-11.2S123.49,266.82,123.49,266.82Z"/><path class="cls-11" d="M134.31,261.68c2.81,1.34,26.34,18.26,42,30.85a.22.22,0,0,1-.23.37c-8.94-4.8-31.05-21.6-42-30.91C133.85,261.83,134.12,261.59,134.31,261.68Z"/><path class="cls-11" d="M201.09,242.54c-5.54,28.43-29.17,60.22-29.17,60.22l-32.34-24,48.79-58.23C199.31,216.86,204.92,223.06,201.09,242.54Z"/><path class="cls-10" d="M306.23,349.88s-20.74-79.35-66.56-123.25c-1-1-2.09-2-3.14-2.84-.2-.21-.41-.36-.61-.54-21.13-17.91-43.52-9.37-57.6,5.38-3.48,3.67-40.89,64.21-42.51,86-1.37,19.23,13.47,38.23,13.47,38.23"/><path class="cls-9" d="M346.54,323.14v26.73l-61-.32c-6.47-13.58-17.18-33.44-28.09-52.66a2.36,2.36,0,0,1-.24-.4v0a.28.28,0,0,0-.1-.13c-1.67-2.94-3.33-5.88-5-8.75a7.26,7.26,0,0,1-.47-.8c-7-12.11-13.88-23.45-19.45-32.16-26.6-41.58.93-35.54,16.61-26.36,9.61,5.64,22.73,15.28,36.64,27l.57.47c2.57,2.17,5.14,4.37,7.74,6.64C297.93,266,342.41,319.27,346.54,323.14Z"/><path class="cls-10" d="M252.13,301.25l44.1-41.15s-27-29-54-39.56-29.68,3.57-16.57,28.15S252.13,301.25,252.13,301.25Z"/><path class="cls-11" d="M249,289.68c1.82-2.52,22.72-22.61,37.93-35.72a.22.22,0,0,1,.32.3c-6.33,7.92-26.85,26.63-38,35.73C249.09,290.15,248.9,289.85,249,289.68Z"/><path class="cls-11" d="M257.11,296.33c-.34.07-4.72,2.9-5,3.12-.31-.76-.77-1.5-1.16-2.28-.86-1.71-1.7-3.44-2.58-5.14q-2.93-5.65-6.07-11.18c-4.12-7.23-8.56-14.34-12.34-21.75-.15-.3-.6,0-.44.28,2.09,3.92,4,7.94,5.88,12-.31-.27-4.66-3.78-5.38-4.47-.25-.23-.62.18-.36.38.76.6,6.68,6.53,7,6.78,1.18,2.54,2.35,5.09,3.55,7.61,1.78,3.71,3.63,7.38,5.52,11,.88,1.7,1.81,3.37,2.73,5.05.69,1.28,2.82,4.85,2.83,4.91.06.29,6.09-5.54,6.26-5.82A.36.36,0,0,0,257.11,296.33Z"/><path class="cls-12" d="M205,209c-8.76.89-19.09,7.07-27.3,18.17-7.23,9.78-13.82,23.69-8.87,26.55,5.74,3.31,17.05-9.26,17.05-9.26s-2.9,20.46,8,19.43c12.72-1.2,24.32-18.89,26.46-30.88C222.56,220.24,220.25,207.44,205,209Z"/><path class="cls-9" d="M217.47,219.83c-.87,3-16.31,21.81-30.07,20.43-4.48-.46-3.08-25-3.08-25L184,213.4l-4.33-25.72,30.87-17.57L215,167.8s.72,7.12,1.53,16c0,.41.08.82.12,1.26s.12,1,.15,1.44c.14,1.32.27,2.68.38,4,.09,1,.17,2,.22,3.1s.14,2.14.21,3.22C218.15,207.54,217.82,218.57,217.47,219.83Z"/><path class="cls-7" d="M216.53,183.79A52.31,52.31,0,0,1,184,213.4l-4.33-25.72,30.87-17.57L215,167.8S215.72,174.92,216.53,183.79Z"/><path class="cls-9" d="M141.52,150.62c-2.31,45.72,24.81,52.26,34.67,52.75,8.95.44,39.48.81,46.5-44.42S209.18,98.19,188.77,96.1,143.83,104.91,141.52,150.62Z"/><path class="cls-7" d="M150.3,144.09a31.31,31.31,0,0,0,3.08-.71,5.18,5.18,0,0,0,3-1.33,1.64,1.64,0,0,0,0-2c-1-1.14-2.57-1.15-4-.86a5.89,5.89,0,0,0-3.68,2.17A1.73,1.73,0,0,0,150.3,144.09Z"/><path class="cls-7" d="M182,144.45c-1.07-.11-2.05-.38-3.1-.59a5.09,5.09,0,0,1-3-1.21,1.64,1.64,0,0,1,0-2c1-1.18,2.52-1.25,4-1a6,6,0,0,1,3.77,2A1.75,1.75,0,0,1,182,144.45Z"/><path class="cls-7" d="M176.12,156.11c0-.12.25.15.24.28-.11,3.11.29,6.7,3.1,7.75.09,0,.08.19,0,.17C176,163.81,175.52,159.05,176.12,156.11Z"/><path class="cls-7" d="M178.92,152.87c5-.36,5.37,9.69.72,10S174.72,153.17,178.92,152.87Z"/><path class="cls-7" d="M180.91,153.33c.9.54,1.8,1.51,2.86,1.58,1.23.08,2.12-1,2.88-2,.08-.11.17,0,.18.11.09,1.93-.58,3.93-2.63,4.29-1.88.33-3.29-1.33-3.84-3.25C180.26,153.65,180.55,153.11,180.91,153.33Z"/><path class="cls-7" d="M156.56,155.38c0-.12-.24.16-.23.29.24,3.1,0,6.7-2.79,7.86-.09,0-.08.19,0,.17C157,163.07,157.28,158.29,156.56,155.38Z"/><path class="cls-7" d="M153.64,152.25c-5-.17-5,9.89-.33,10.05S157.85,152.39,153.64,152.25Z"/><path class="cls-7" d="M151.54,152.92c-.79.53-1.57,1.5-2.52,1.57-1.1.08-1.92-1-2.63-2.05-.07-.11-.15,0-.15.11-.05,1.93.6,3.93,2.45,4.29,1.68.33,2.91-1.33,3.36-3.24C152.14,153.24,151.86,152.7,151.54,152.92Z"/><path class="cls-7" d="M175.43,180.06c-.68.79-1.35,1.85-2.47,2a8.27,8.27,0,0,1-3.4-.52.11.11,0,0,0-.12.17,4.19,4.19,0,0,0,4.08,1.37,3.31,3.31,0,0,0,2.22-2.94C175.77,180,175.53,180,175.43,180.06Z"/><path class="cls-7" d="M162.14,169.1s-.53,4.67-.48,6.87c0,.2.54.29,1.28.31,0,0,.06,0,.09,0a10.41,10.41,0,0,0,10-4.13c.15-.22-.14-.44-.33-.3-2.85,2.2-6,2.82-9.47,3-.17-.61,1.18-8,.84-8-1.21-.07-3.55.8-5,1.25.83-9.76,3.22-19.3,3.9-29a.3.3,0,0,0-.58-.13c-3.21,9.83-4.41,21-5.53,31.09C156.79,171.25,161.27,169.5,162.14,169.1Z"/><path class="cls-7" d="M163.23,175.46a12.79,12.79,0,0,0,5.07,4,5.74,5.74,0,0,0,3.49.25c2.53-.64,2.62-2.95,2.18-4.94a13.74,13.74,0,0,0-1.11-3.05A16.53,16.53,0,0,1,163.23,175.46Z"/><path class="cls-10" d="M168.3,179.47a5.74,5.74,0,0,0,3.49.25c2.53-.64,2.62-2.95,2.18-4.94C171.26,175,168.56,176.84,168.3,179.47Z"/><path class="cls-7" d="M218.61,161.17c-11.26,0-15.68-34.46-16.17-38.69.17,2.68,1,16.89,0,17.5-.27.14-1.53-.08-3.55-.55h0a32.8,32.8,0,0,0-.57-5.07c-.12-.78-.24,1.72-.57,4.81-.64-.15-1.34-.34-2.1-.51a40.74,40.74,0,0,0-1.43-10.78c-.37-1.33-.53,4.73-1.64,10-7.82-1.83-19.11-4.2-29.6-4.2-2.8,0-5.22.11-7.36.28-.15-4.2.18-8.69-.09-7.71a40.53,40.53,0,0,0-1.5,7.86c-1.15.1-2.23.22-3.18.35-.49-5.93,2-15.49,1.11-14a42,42,0,0,0-5.24,14.8c-4,.92-5.11,1.75-5.26.7-.25-1.89,1.51-18.56,14-31.16,13.61-13.7,41.52-18,58,1.89,0,0,13.29,8,15.8,21.67S225.11,161.17,218.61,161.17Z"/><path class="cls-9" d="M213.65,161.16s9.47-14.64,16.08-11.31-.16,24.29-7.66,27.4a7.74,7.74,0,0,1-10.51-3.79Z"/><path class="cls-7" d="M227.64,155.81c.12,0,.15.15.05.2-5.26,2.35-7.89,7.4-9.67,12.6,1.52-2,3.64-3.19,6.35-1.4.14.1,0,.32-.14.29a4.75,4.75,0,0,0-5.17,1.85,23.26,23.26,0,0,0-2.36,4.33c-.23.48-1.1.26-.94-.3l0-.12C215.42,166.46,220.36,156.76,227.64,155.81Z"/></g></g></svg>