<svg xmlns="http://www.w3.org/2000/svg" viewBox="0 0 459.37 229.97"><defs><style>.cls-1{fill:#c5d856;}.cls-2{fill:#f7f3a1;}.cls-3{fill:#85ae8e;}.cls-4{fill:#f6f29f;}.cls-5{fill:#48453a;}.cls-6{fill:#84ae8e;}</style></defs><g id="Layer_2" data-name="Layer 2"><g id="Map"><g id="KUZ46I.tif"><path class="cls-1" d="M248.65,230H162.18c-1.46-1.09-2.86-2.28-4.41-3.24A131,131,0,0,1,120.35,192c-21.89-30.41-26.07-62.65-8.77-96.53,13.76-27,35.55-46.64,60-63.61C191,18.45,212.18,8.66,234.47,1.16l1.84-.81c25.59-.14,51.18-.52,76.76.19,1.38.89,2.71,1.9,4.16,2.66,12.55,6.52,20.84,16.72,25.7,29.78,6.69,18,6.32,36.48,2.78,54.82-8.55,44.21-30.13,81.76-61,114.21C274.19,213.12,261.64,221.88,248.65,230Zm-45.09-23.15c36.31,1.17,69.24-29,68.93-68.56C272.18,99.12,241.76,70.34,204,70c-38.41-.32-69.19,29.73-69.22,68.56C134.77,177.9,167.32,207.83,203.56,206.82Z"/><path class="cls-2" d="M356.17,230H298.53c1-1.08,2-2.2,3-3.25a297.28,297.28,0,0,0,74-129.27,186.68,186.68,0,0,0,6.85-46.73,114.6,114.6,0,0,0-8.61-46.24c1.79.39,3.61.66,5.35,1.18a109.26,109.26,0,0,1,40.78,22.47c23.64,20.6,37.15,46.5,39.49,77.93l-.09,21.14c-.33,2.17-.6,4.36-1,6.52-8.05,44.22-33.73,73.68-75.44,89.82C374.21,226.88,365,227.59,356.17,230Z"/><path class="cls-3" d="M313.07.54c17.62,0,35.27-1.35,52.79,1.75,2.7.48,5.44.81,7.89,2.19a114.6,114.6,0,0,1,8.61,46.24,186.68,186.68,0,0,1-6.85,46.73,297.28,297.28,0,0,1-74,129.27c-1,1.05-2,2.17-3,3.25H248.65c13-8.09,25.54-16.85,36.1-28,30.83-32.45,52.41-70,61-114.21,3.54-18.34,3.91-36.86-2.78-54.82-4.86-13.06-13.15-23.26-25.7-29.78C315.78,2.44,314.45,1.43,313.07.54Z"/><path class="cls-4" d="M203.56,206.82c-36.24,1-68.79-28.92-68.75-68.23,0-38.83,30.81-68.88,69.22-68.56,37.73.31,68.15,29.09,68.46,68.23C272.8,177.81,239.87,208,203.56,206.82Zm-52.62-68.51A52.65,52.65,0,1,0,204.07,86.1,52.58,52.58,0,0,0,150.94,138.31Z"/><path class="cls-2" d="M234.19.35h2.13l-1.85.81A1.83,1.83,0,0,1,234.19.35Z"/><path class="cls-2" d="M95.94,227.75c-13.57-.93-25.87-5.94-37.38-12.63C24.74,195.46,5,165.87.76,127.27c-3.64-32.93,5.84-62.54,28-87.77C47.46,18.29,70.92,6,98.65,1.57A84.79,84.79,0,0,1,111.83.27Q170.26.06,228.67.1a20.23,20.23,0,0,1,2.2.22c-5.83,1.34-11.74.5-17.61.56-13.84.15-27.68.05-41.51.05-2.4,0-4.79-.16-7,1.23C130.38,24.13,99.64,50,79.23,86,53.46,131.43,57.44,175.29,88,217.2,90.55,220.77,93.28,224.24,95.94,227.75Z"/><path class="cls-5" d="M150.94,138.31a52.65,52.65,0,1,1,52.14,52.8A52.33,52.33,0,0,1,150.94,138.31Z"/><path class="cls-6" d="M230.87.32l3.32,0c0,.29,4.57-.55,4.73-.3-22.29,7.5-47.94,18.4-67.3,31.81-24.49,17-46.28,36.65-60,63.61-17.3,33.88-13.12,66.12,8.77,96.53a131,131,0,0,0,37.42,34.73c1.55,1,2.95,2.15,4.41,3.24H100.11c-.83-1.79-3.11-.87-4.17-2.22-2.66-3.51-5.39-7-8-10.55C57.44,175.29,53.46,131.43,79.23,86,99.64,50,132.16,22.34,166.57.38"/></g></g></g></svg>