<svg xmlns="http://www.w3.org/2000/svg" viewBox="0 0 460.26 229.83"><defs><style>.cls-1{fill:#b79743;}.cls-2{fill:#85ae8f;}.cls-3{fill:#84ae8f;}.cls-4{fill:#e9cd76;}.cls-5{fill:#ae9c70;}.cls-6{fill:#ae9c6f;}.cls-7{fill:#e0cf89;}.cls-8{fill:#faf2b1;}.cls-9{fill:#faf2b0;}.cls-10{fill:#fbf2b1;}.cls-11{fill:#e2d28c;}.cls-12{fill:#e9ce76;}.cls-13{fill:#e9ce77;}</style></defs><g id="Layer_2" data-name="Layer 2"><g id="Map"><g id="aNyoEU.tif"><path class="cls-1" d="M298.18,229.83H161.84c-1.8-2.47-4.62-3.62-7-5.27-77.39-52.93-76.62-168.06,1.44-220A21.16,21.16,0,0,1,168.63.77C209.82.89,251,.83,292.2.84c2.77,0,5.55-.15,8.2.91l5,3.45a132.8,132.8,0,0,1,43.37,171C337.07,198.86,319.76,216.36,298.18,229.83Zm-67.83-14.11c53,1.46,101.39-42.93,101.23-100.48-.16-56.39-44.85-101.06-101.42-101-56.26,0-100.72,44.59-100.73,101S173.75,215.71,230.35,215.72Z"/><path class="cls-2" d="M300.4,1.75C297.75.69,295,.84,292.2.84,251,.83,209.82.89,168.63.77a21.16,21.16,0,0,0-12.38,3.8c-78.06,51.93-78.83,167.06-1.44,220,2.41,1.65,5.23,2.8,7,5.27H103.09c-.76-1-1.93-.92-3-1.08C48.64,221.22,10.62,184,1.74,132.62c-.38-2.23.33-4.86-1.74-6.69v-22.1c1.65-.9,1.1-2.58,1.33-3.94,1.61-9.23,3.42-18.4,7.27-27,1,2.75,3.07,4.57,5.31,6.22,11.61,8.56,24.38,12.46,39,10.57,30.14-3.92,50.34-33,43.31-62.42-2-8.47-6.66-15.48-11.12-22.67A66.29,66.29,0,0,1,104,1c21.56-.48,43.13-.87,64.7-.95C209.86,0,251,0,292.12.07c2.76,0,5.52.29,8.28.44Z"/><path class="cls-3" d="M300.4,1.75V.51c20.09.23,40.33-1.81,60.26,1,75,10.46,118.87,86.1,91.31,156.65-1.08-1-2.12-2.06-3.24-3-16.67-14.24-35.5-18-55.64-9.3s-30.16,25-30.68,47c-.3,12.53,4.52,23.29,11.51,33.31-4.77,1.84-10.13,1.35-14.77,3.71h-61c21.58-13.47,38.89-31,50.61-53.66a132.8,132.8,0,0,0-43.37-171Z"/><path class="cls-4" d="M230.35,215.72c-56.6,0-100.93-44.17-100.92-100.56s44.47-100.95,100.73-101c56.57,0,101.26,44.66,101.42,101.05C331.74,172.79,283.4,217.18,230.35,215.72ZM208.7,187.45c.6-.11,1.52-.22,2.41-.43,6.14-1.4,10.8-6.19,11.61-11.91.93-6.67-1.79-12.51-8-15.59a45,45,0,0,1-17.65-15.46c-1.12-1.68-2.86-3.68,1-4.95,6-2,6.5-3.53,3.25-9.26q-9.81-17.28-19.92-34.4c-3.7-6.3-7.11-6.31-10.8-.07q-10,16.88-19.73,33.87c-4,7-2.45,9.93,5.67,9.75,4.94-.1,7.16,1.79,8.64,6.37,5.73,17.68,17.55,30.34,33.69,39.24A21.76,21.76,0,0,0,208.7,187.45Zm91.73-62.59a62.6,62.6,0,0,0-3.09-21.58A18.21,18.21,0,0,0,291.63,94a14.6,14.6,0,0,0-17.53-.75c-5.41,3.71-8,10.2-5.78,16.47,2.79,7.91,2.86,15.87,1.57,24-.42,2.64-1.2,4.69-4.65,2.3-4-2.74-6.73-.83-7.89,3.31-3.77,13.46-7.57,26.93-11,40.49-1.51,6,1.28,8.38,7.24,6.82q19.27-5.06,38.52-10.24c7.8-2.09,8.74-5.15,2.85-10.86-3.34-3.24-3.73-6-1.61-10.15A60.4,60.4,0,0,0,300.43,124.86ZM244.34,84V82.83c9.58,0,19.16.09,28.74,0,8.06-.1,9.69-3.1,5.49-9.88q-10-16.2-20.17-32.32c-4.66-7.4-7.8-7.4-12,.46-2.12,4-4.54,4.79-8.83,4-18.72-3.23-35.88,1-51.49,11.66-8.37,5.7-10.56,14.67-5.48,21.85s14.08,8.1,22.47,2.29c6-4.17,12.59-6.86,20.06-7,2.75-.07,4.79,0,3.66,3.9-1.28,4.39,1.35,6.09,5.35,6.17S240.28,84,244.34,84Z"/><path class="cls-5" d="M8.6,72.86c.93-4,3-7.59,4.89-11.22,8.92,9.69,19.08,16.39,33.13,16,16.78-.5,30.72-10,36.32-25.66A38.63,38.63,0,0,0,71,9.06c4.66-1.57,9-4.22,14-4.5,4.46,7.19,9.1,14.2,11.12,22.67,7,29.42-13.17,58.5-43.31,62.42-14.59,1.89-27.36-2-39-10.57C11.67,77.43,9.58,75.61,8.6,72.86Z"/><path class="cls-6" d="M387,222a46.85,46.85,0,0,1-13.06,4.11c-7-10-11.8-20.78-11.5-33.31.52-22,10.46-38.29,30.68-47s39-4.94,55.64,9.3c1.12,1,2.16,2,3.24,3l-5.58,12.16c-2.09-2.08-4.06-4.29-6.29-6.2-12.42-10.66-26.45-13.7-41.66-7.27s-22.87,18.44-23.78,34.84C374,203.71,379.54,213.23,387,222Z"/><path class="cls-7" d="M387,222c-7.43-8.78-13-18.3-12.31-30.36.91-16.4,8.62-28.42,23.78-34.84s29.24-3.39,41.66,7.27c2.23,1.91,4.2,4.12,6.29,6.2-4.83,9.14-10.66,17.55-18.41,24.51-1.86-1.54-3.79-3.08-6.16-3.6-4.71-1-5.53-4.26-5.07-8.31.15-1.35-.54-3.35,1.53-3.57,1.7-.19,2.46,1.41,2.88,2.88.7,2.45.92,5.74,4.5,5s3-4.11,3.15-6.82a27.48,27.48,0,0,0-.14-3.85c-.34-3.66-1.73-6-6-5a5.21,5.21,0,0,1-6.11-2.63c-1.92-3.17-4.12-3.48-6.48-.46a5.83,5.83,0,0,1-3.26,1.92c-5.94,1.63-9.72,5.14-9.95,11.6s3.56,9.75,9.14,11.55c2.87.93,4.44,2.69,4,5.69-.34,2.51,1.66,6.39-1.74,7.2-3.22.76-3.4-3-4.14-5.43a3,3,0,0,0-3.26-2.43,2.56,2.56,0,0,0-2.61,2.41c-.16,5.21-1.95,10.68,2.07,15.32C395.92,218.36,391.81,221.05,387,222Z"/><path class="cls-7" d="M71,9.06A38.63,38.63,0,0,1,82.94,51.94C77.34,67.64,63.4,77.1,46.62,77.6c-14,.43-24.21-6.27-33.13-16,4.77-9.55,10.66-18.29,18.59-25.55,1.36.93,2.61,2.36,4.11,2.7,6,1.4,6.44,5.71,6,10.6-.12,1.21.35,2.85-1.26,3.3s-2.76-.78-3.46-2.11a19.33,19.33,0,0,1-1-3.13C36,45.89,35,44.85,33.28,45a3,3,0,0,0-2.91,2.85,54.89,54.89,0,0,0-.17,9.33c.28,3.2,1.92,5.28,5.58,3.71,2.6-1.12,4.75-.61,6.29,1.64,2.08,3,4.28,3.18,6.77.63,1.35-1.39,3.16-1.79,4.87-2.45,6.21-2.37,9.44-6.6,9.37-12.24-.07-6.07-3.83-9.21-9-11.17A14,14,0,0,1,51,36c-3.24-2.21-1.91-5.6-2-8.59,0-.93.39-2,1.56-1.81,2.89.54,3.32,2.95,4,5.32.79,2.89,2.76,4.19,5.27,1.9,3.6-3.29.83-14.45-3.83-16.14A66,66,0,0,1,71,9.06Z"/><path class="cls-8" d="M55.94,16.67c4.66,1.69,7.43,12.85,3.83,16.14-2.51,2.29-4.48,1-5.27-1.9-.64-2.37-1.07-4.78-4-5.32-1.17-.21-1.6.88-1.56,1.81.11,3-1.22,6.38,2,8.59a14,14,0,0,0,3,1.28c5.2,2,9,5.1,9,11.17.07,5.64-3.16,9.87-9.37,12.24-1.71.66-3.52,1.06-4.87,2.45-2.49,2.55-4.69,2.41-6.77-.63-1.54-2.25-3.69-2.76-6.29-1.64-3.66,1.57-5.3-.51-5.58-3.71a54.89,54.89,0,0,1,.17-9.33A3,3,0,0,1,33.28,45c1.74-.12,2.69.92,3.17,2.48a19.33,19.33,0,0,0,1,3.13c.7,1.33,1.76,2.59,3.46,2.11s1.14-2.09,1.26-3.3c.47-4.89.06-9.2-6-10.6-1.5-.34-2.75-1.77-4.11-2.7A12.87,12.87,0,0,1,36.41,32c5.75,2.1,6-1.48,5.76-5.55C45.93,22,51.3,19.85,55.94,16.67Zm-7.22,32c.6,1.74-.64,4.82,2.64,5A4.44,4.44,0,0,0,56,49.16c.15-3-2.07-4.81-4.76-5.07C48,43.78,49.29,46.78,48.72,48.65Z"/><path class="cls-8" d="M400.31,216.34c-4-4.64-2.23-10.11-2.07-15.32a2.56,2.56,0,0,1,2.61-2.41,3,3,0,0,1,3.26,2.43c.74,2.41.92,6.19,4.14,5.43,3.4-.81,1.4-4.69,1.74-7.2.42-3-1.15-4.76-4-5.69-5.58-1.8-9.38-5.15-9.14-11.55s4-10,9.95-11.6a5.83,5.83,0,0,0,3.26-1.92c2.36-3,4.56-2.71,6.48.46a5.21,5.21,0,0,0,6.11,2.63c4.31-1,5.7,1.29,6,5a27.48,27.48,0,0,1,.14,3.85c-.12,2.71.4,6.12-3.15,6.82s-3.8-2.58-4.5-5c-.42-1.47-1.18-3.07-2.88-2.88-2.07.22-1.38,2.22-1.53,3.57-.46,4.05.36,7.28,5.07,8.31,2.37.52,4.3,2.06,6.16,3.6-.85,2.66-3.43,3.6-5.27,5.29-1.43-1.36-3.24-3.35-5-1.89-2,1.64-1,4.26.11,6.4A93.08,93.08,0,0,1,400.31,216.34Zm9.83-34.86c-.6-1.2.61-4-2.41-3.7a4.15,4.15,0,0,0-3.91,4.57,3.7,3.7,0,0,0,4,3.74C410.46,186,409.82,183.52,410.14,181.48Z"/><path class="cls-7" d="M417.82,204.59c-1.12-2.14-2.08-4.76-.11-6.4,1.76-1.46,3.57.53,5,1.89Z"/><path class="cls-7" d="M42.17,26.41c.23,4.07,0,7.65-5.76,5.55A19.54,19.54,0,0,1,42.17,26.41Z"/><path class="cls-9" d="M208.7,187.45a21.76,21.76,0,0,1-9.77-2.84c-16.14-8.9-28-21.56-33.69-39.24-1.48-4.58-3.7-6.47-8.64-6.37-8.12.18-9.69-2.76-5.67-9.75q9.78-17,19.73-33.87c3.69-6.24,7.1-6.23,10.8.07q10.08,17.14,19.92,34.4c3.25,5.73,2.76,7.29-3.25,9.26-3.89,1.27-2.15,3.27-1,4.95a45,45,0,0,0,17.65,15.46c6.18,3.08,8.9,8.92,8,15.59-.81,5.72-5.47,10.51-11.61,11.91C210.22,187.23,209.3,187.34,208.7,187.45Zm-.39-6.26a25.47,25.47,0,0,0,4.18-1.69c5.59-3.51,4.85-11.48-1.58-14.65a45.44,45.44,0,0,1-22.46-23.4c-1.7-4-2.26-7.72,3.45-8.84,2.55-.5,2.38-1.88,1.41-3.58q-7.44-12.93-14.93-25.83c-1.34-2.3-2.95-2.85-4.5-.21q-7.57,12.84-15,25.76c-1.18,2.05-.9,3.87,1.84,3.68,6.52-.44,8.32,3.64,9.93,8.86,5.25,17.05,16.22,29.46,32,37.66A56.2,56.2,0,0,0,208.31,181.19Z"/><path class="cls-10" d="M300.43,124.86a60.4,60.4,0,0,1-7.06,30.5c-2.12,4.14-1.73,6.91,1.61,10.15,5.89,5.71,4.95,8.77-2.85,10.86q-19.26,5.16-38.52,10.24c-6,1.56-8.75-.82-7.24-6.82,3.41-13.56,7.21-27,11-40.49,1.16-4.14,3.92-6.05,7.89-3.31,3.45,2.39,4.23.34,4.65-2.3,1.29-8.08,1.22-16-1.57-24-2.21-6.27.37-12.76,5.78-16.47a14.6,14.6,0,0,1,17.53.75,18.21,18.21,0,0,1,5.71,9.26A62.6,62.6,0,0,1,300.43,124.86Zm-6.64-.4a53.39,53.39,0,0,0-3.57-21.32c-1.85-4.78-6.47-6.88-10.68-5.37s-6.1,5.83-4.7,10.88c.4,1.41.91,2.8,1.21,4.24,2.12,10.12,1.92,20.09-2.3,29.72-1.38,3.16-3.48,5.69-7.19,3.08s-4.29-.05-5,2.61c-2.25,8.35-4.53,16.68-6.73,25-1.39,5.25-.35,6.29,5.18,4.88,8.57-2.18,17.08-4.63,25.65-6.8,3.52-.89,4.73-2.2,1.52-4.88-4.08-3.41-3.58-6.85-1.15-11.16A57.57,57.57,0,0,0,293.79,124.46Z"/><path class="cls-10" d="M244.34,84c-4.06,0-8.12.06-12.18,0s-6.63-1.78-5.35-6.17c1.13-3.86-.91-4-3.66-3.9-7.47.16-14,2.85-20.06,7-8.39,5.81-17.39,4.9-22.47-2.29s-2.89-16.15,5.48-21.85c15.61-10.63,32.77-14.89,51.49-11.66,4.29.74,6.71,0,8.83-4,4.17-7.86,7.31-7.86,12-.46q10.16,16.11,20.17,32.32c4.2,6.78,2.57,9.78-5.49,9.88-9.58.12-19.16,0-28.74,0Zm5.08-6.68c6.28.4,12.49-.78,18.74-1,4-.14,3.74-1.76,2-4.44-5-7.92-10-15.85-14.88-23.88-2.25-3.73-3.91-3.17-5.61.29-1.91,3.89-4.81,5.17-9.09,3.89-6.64-2-13.54-1.83-20.31-1.27a60.12,60.12,0,0,0-32.05,12.34c-4.18,3.19-4.88,8-2.23,11.7s6.87,4.26,11.34,1.82c1.29-.7,2.48-1.58,3.73-2.37a46.11,46.11,0,0,1,29-7c2.93.23,6.34.85,5.79,4.35-.94,5.93,2.37,5.78,6.33,5.6C244.62,77.21,247,77.3,249.42,77.3Z"/><path class="cls-11" d="M48.72,48.65c.57-1.87-.75-4.87,2.55-4.56,2.69.26,4.91,2.08,4.76,5.07a4.44,4.44,0,0,1-4.67,4.45C48.08,53.47,49.32,50.39,48.72,48.65Z"/><path class="cls-11" d="M410.14,181.48c-.32,2,.32,4.49-2.32,4.61a3.7,3.7,0,0,1-4-3.74,4.15,4.15,0,0,1,3.91-4.57C410.75,177.48,409.54,180.28,410.14,181.48Z"/><path class="cls-12" d="M208.31,181.19a56.2,56.2,0,0,1-5.67-2.24c-15.81-8.2-26.78-20.61-32-37.66-1.61-5.22-3.41-9.3-9.93-8.86-2.74.19-3-1.63-1.84-3.68q7.47-12.9,15-25.76c1.55-2.64,3.16-2.09,4.5.21q7.5,12.9,14.93,25.83c1,1.7,1.14,3.08-1.41,3.58-5.71,1.12-5.15,4.88-3.45,8.84a45.44,45.44,0,0,0,22.46,23.4c6.43,3.17,7.17,11.14,1.58,14.65A25.47,25.47,0,0,1,208.31,181.19Z"/><path class="cls-13" d="M293.79,124.46A57.57,57.57,0,0,1,286,155.37c-2.43,4.31-2.93,7.75,1.15,11.16,3.21,2.68,2,4-1.52,4.88-8.57,2.17-17.08,4.62-25.65,6.8-5.53,1.41-6.57.37-5.18-4.88,2.2-8.35,4.48-16.68,6.73-25,.72-2.66,1.22-5.28,5-2.61s5.81.08,7.19-3.08c4.22-9.63,4.42-19.6,2.3-29.72-.3-1.44-.81-2.83-1.21-4.24-1.4-5.05.47-9.37,4.7-10.88s8.83.59,10.68,5.37A53.39,53.39,0,0,1,293.79,124.46Z"/><path class="cls-13" d="M249.42,77.3c-2.4,0-4.8-.09-7.19,0-4,.18-7.27.33-6.33-5.6.55-3.5-2.86-4.12-5.79-4.35a46.11,46.11,0,0,0-29,7c-1.25.79-2.44,1.67-3.73,2.37-4.47,2.44-8.8,1.72-11.34-1.82s-1.95-8.51,2.23-11.7A60.12,60.12,0,0,1,220.31,50.9c6.77-.56,13.67-.72,20.31,1.27,4.28,1.28,7.18,0,9.09-3.89,1.7-3.46,3.36-4,5.61-.29,4.85,8,9.86,16,14.88,23.88,1.7,2.68,1.95,4.3-2,4.44C261.91,76.52,255.7,77.7,249.42,77.3Z"/></g></g></g></svg>