<svg xmlns="http://www.w3.org/2000/svg" viewBox="0 0 460.44 229.97"><defs><style>.cls-1{fill:#c5d856;}.cls-2{fill:#84838f;}.cls-3{fill:#9d9da4;}.cls-4{fill:#f2cb01;}.cls-5{fill:#b9bbbd;}.cls-6{fill:#868591;}.cls-7{fill:#9bc445;}.cls-8{fill:#84ae8d;}</style></defs><g id="Layer_2" data-name="Layer 2"><g id="Map"><g id="P6oM9n.tif"><path class="cls-1" d="M358.46,230H269.78c5.36-4.46,5.48-5.89.93-10.92v-9.28c4.07-3.53,4.29-7.07,0-10.63q.06-7.37.11-14.75c.17-.9.27-1.82.5-2.7,4.14-16,13.19-29,24.91-40.34,12.61-12.17,22-26.43,26.41-43.3C332.48,61,324,28.27,297.47.35c17.88,0,35.77-.59,53.65.36a114.56,114.56,0,0,1,106.2,90.08c1.14,5.12.85,10.51,3.12,15.38V125c-1.75,1.11-1.09,3-1.33,4.52-7.86,50-41.16,86.52-89.1,97.7C366.16,228.08,362,227.78,358.46,230Z"/><path class="cls-1" d="M190,230H101.29c-1.87-1.89-4.45-1.53-6.7-1.92C39.84,218.65-1.28,169,0,112,1.26,58.68,41.55,11.05,95.44,2.23,117.6-1.4,140,.53,162.35.38c-.72.83-1.43,1.68-2.15,2.5-25.91,29.55-33.56,63-21.21,100.51,5.11,15.53,14.55,28.25,26.21,39.65S186,167.8,188.91,184.46l.27,14.78c-4.19,3.5-4.05,7,0,10.49,0,3.15,0,6.29,0,9.44C184.78,223.94,184.9,225.5,190,230Z"/><path class="cls-2" d="M190,230c-5.07-4.47-5.19-6-.8-10.8l81.54-.12c4.55,5,4.43,6.46-.93,10.92H257.59a6.19,6.19,0,0,0-4.19-1.1H206.35a6.14,6.14,0,0,0-4.19,1.1Z"/><path class="cls-3" d="M202.16,230a6.14,6.14,0,0,1,4.19-1.1H253.4a6.19,6.19,0,0,1,4.19,1.1Z"/><path class="cls-4" d="M162.35.38C183.2.3,204.06.17,224.92.17c24.18,0,48.36.11,72.55.18,26.5,27.92,35,60.6,25.21,97.7-4.46,16.87-13.8,31.13-26.41,43.3-11.72,11.3-20.77,24.34-24.91,40.34-.23.88-.33,1.8-.5,2.7l-35.21-.17c0-19.51-.09-39,0-58.54a62,62,0,0,1,1-8.75c.42-2.83,1.68-3.8,4.92-3.3,20.31,3.15,34.82-5.53,41.88-24.8,6.31-17.24,6.08-35,4-52.87-.35-3-1.83-3.44-4.55-3.08a134.81,134.81,0,0,0-38.75,10.77c-7.84,3.58-14.05,9.35-20.93,14.22-9.81-4.6-20.27-6.54-31-7.59-11.25-1.1-11.23-1.17-10.36,9.93.16,2,.13,4.05.35,6.05,1.28,11.63,3.78,22.87,10.77,32.61,5.28,7.36,12.52,11.72,21.56,11.37,5.94-.23,7.86,2.53,8.65,7.37a42.82,42.82,0,0,1,.69,6.57q.09,30.06.07,60.12l-35.11.16c-2.89-16.66-12-29.93-23.71-41.42S144.1,118.92,139,103.39c-12.35-37.52-4.7-71,21.21-100.51C160.92,2.06,161.63,1.21,162.35.38Z"/><path class="cls-5" d="M235.65,184.22l35.21.17q-.06,7.38-.11,14.75l-81.57.1-.27-14.78,35.1-.16h6.11Z"/><path class="cls-6" d="M189.18,199.24l81.57-.1c4.25,3.56,4,7.1,0,10.63l-81.52,0C185.13,206.24,185,202.74,189.18,199.24Z"/><path class="cls-5" d="M189.19,209.73l81.52,0v9.28l-81.54.12C189.17,216,189.18,212.88,189.19,209.73Z"/><path class="cls-7" d="M235.65,184.22l-5.53.08c-.05-24.65-.06-49.3-.21-74,0-3.35,1.66-5.39,3.78-7.56,6.47-6.63,9-14.5,7.31-23.73-1.92-10.45-9-16.45-17.74-21.19,6.88-4.87,13.09-10.64,20.93-14.22a134.81,134.81,0,0,1,38.75-10.77c2.72-.36,4.2.1,4.55,3.08,2.06,17.89,2.29,35.63-4,52.87-7.06,19.27-21.57,28-41.88,24.8-3.24-.5-4.5.47-4.92,3.3a62,62,0,0,0-1,8.75C235.56,145.19,235.63,164.71,235.65,184.22Z"/><path class="cls-8" d="M223.26,57.87C232,62.61,239.08,68.61,241,79.06c1.69,9.23-.84,17.1-7.31,23.73-2.12,2.17-3.8,4.21-3.78,7.56.15,24.65.16,49.3.21,74H224q0-30.06-.06-60.12a42.82,42.82,0,0,0-.69-6.57c-.79-4.84-2.71-7.6-8.65-7.37-9,.35-16.28-4-21.56-11.37-7-9.74-9.49-21-10.77-32.61-.22-2-.19-4-.35-6.05-.87-11.1-.89-11,10.36-9.93C203,51.33,213.45,53.27,223.26,57.87Z"/></g></g></g></svg>